<?xml version="1.0" encoding="UTF-8"?>
<svg width="10px" height="12px" viewBox="0 0 10 12" version="1.1" xmlns="http://www.w3.org/2000/svg" xmlns:xlink="http://www.w3.org/1999/xlink">
    <!-- Generator: Sketch 39 (31667) - http://www.bohemiancoding.com/sketch -->
    <title>address</title>
    <desc>Created with Sketch.</desc>
    <defs></defs>
    <g id="试驾" stroke="none" stroke-width="1" fill="none" fill-rule="evenodd">
        <g id="09-试驾车详情" transform="translate(-13.000000, -585.000000)" fill="#ACB1B7">
            <g id="Car-Info" transform="translate(0.000000, 64.000000)">
                <g id="store-info" transform="translate(0.000000, 455.000000)">
                    <path d="M20.5312524,70.085113 C20.5312524,68.8159853 19.3980159,67.7872458 18.0000078,67.7872458 C16.6019997,67.7872458 15.4687632,68.8159994 15.4687632,70.085113 C15.4687632,71.3542266 16.6019841,72.3829802 18.0000078,72.3829802 C19.3980315,72.3829802 20.5312524,71.3542266 20.5312524,70.085113 L20.5312524,70.085113 Z M16.0312602,70.085113 C16.0312602,69.0982357 16.9126508,68.2978814 18.0000078,68.2978814 C19.0873804,68.2978814 19.9687554,69.0982498 19.9687554,70.085113 C19.9687554,71.0722171 19.0873804,71.8723447 18.0000078,71.8723447 C16.9126352,71.8723447 16.0312602,71.0722171 16.0312602,70.085113 L16.0312602,70.085113 Z M22.5,70.085113 C22.5,67.8291363 20.4853885,66 17.9999922,66 C15.5145959,66 13.5,67.8291221 13.5,70.085113 C13.5,72.341104 18.0000078,77.2340537 18.0000078,77.2340537 C18.0000078,77.2340537 22.5,72.3410898 22.5,70.085113 L22.5,70.085113 Z M18.0000078,66.5106356 C20.174472,66.5106356 21.9375029,68.1108765 21.9375029,70.085113 C21.9375029,72.0593495 18.0000078,76.4680932 18.0000078,76.4680932 C18.0000078,76.4680932 14.0624971,72.0593354 14.0624971,70.085113 C14.0624971,68.1108765 15.825528,66.5106356 18.0000078,66.5106356 L18.0000078,66.5106356 Z M19.9891897,75.5974067 C19.8660063,75.750868 19.7458671,75.8980656 19.6303486,76.0377099 C20.8312727,76.1632963 21.6562466,76.4232268 21.6562466,76.723404 C21.6562466,77.1462907 20.0193025,77.4893644 17.9999922,77.4893644 C15.9806975,77.4893644 14.3437378,77.1462907 14.3437378,76.723404 C14.3437378,76.4232268 15.1687273,76.1633104 16.3696514,76.0377099 C16.2541329,75.8980656 16.133978,75.750868 16.0108103,75.5974067 C14.6839086,75.8124991 13.7812407,76.2360094 13.7812407,76.723404 C13.7812407,77.4285269 15.6700776,78 18.0000078,78 C20.329938,78 22.2187593,77.4285269 22.2187593,76.723404 C22.2187593,76.2360094 21.3160914,75.8124991 19.9891897,75.5974067 L19.9891897,75.5974067 Z" id="address"></path>
                </g>
            </g>
        </g>
    </g>
</svg>