<?xml version="1.0" encoding="UTF-8"?>
<svg width="12px" height="12px" viewBox="0 0 12 12" version="1.1" xmlns="http://www.w3.org/2000/svg" xmlns:xlink="http://www.w3.org/1999/xlink">
    <!-- Generator: Sketch 39 (31667) - http://www.bohemiancoding.com/sketch -->
    <title>car shop</title>
    <desc>Created with Sketch.</desc>
    <defs></defs>
    <g id="试驾" stroke="none" stroke-width="1" fill="none" fill-rule="evenodd">
        <g id="09-试驾车详情" transform="translate(-12.000000, -566.000000)" fill="#ACB1B7">
            <g id="Car-Info" transform="translate(0.000000, 64.000000)">
                <g id="store-info" transform="translate(0.000000, 454.000000)">
                    <g id="car-shop" transform="translate(12.000000, 48.000000)">
                        <path d="M9.82466447,7.04327898 C8.631459,7.04327898 7.66071483,5.99773545 7.66071483,4.71260329 C7.66071483,4.56298608 7.77874527,4.43656315 7.91847393,4.43656315 C8.05820259,4.43656315 8.1762112,4.56296269 8.1762112,4.71260329 C8.1762112,5.69326359 8.9183819,6.49110517 9.83062385,6.49110517 C10.7428876,6.49110517 11.4850801,5.6961395 11.4850801,4.71900979 C11.4850801,4.59218937 11.4706074,4.46698228 11.4381474,4.31299276 L11.4371214,4.30810606 L9.73477186,0.513641356 L2.25982346,0.513641356 L0.557495746,4.31453592 L0.55649161,4.31874456 C0.52313661,4.4569283 0.509537017,4.57289976 0.509537017,4.71903315 C0.509537017,5.69969345 1.25172954,6.49755841 2.16397149,6.49755841 C3.07621342,6.49755841 3.81834047,5.69969345 3.81834047,4.71903315 C3.81834047,4.56936917 3.93639275,4.44289948 4.07612141,4.44289948 C4.22067432,4.44289948 4.33390234,4.56420189 4.33390234,4.71903315 C4.33390234,6.00063473 3.36315817,7.04327897 2.16993086,7.04327897 C0.973407339,7.04327898 0,5.99773545 0,4.71260329 C0,4.5268619 0.0227460169,4.34579677 0.0715342542,4.14277657 L0.0719271864,4.14109313 L0.0724292542,4.13957334 C0.0751797288,4.13092225 0.0778865593,4.12360388 0.0806152034,4.11637904 C0.0838895763,4.10756427 0.0865309153,4.10045635 0.0891722542,4.09222611 L0.0899799322,4.0897243 L1.87025969,0.128386965 C1.89588717,0.069536115 1.95598293,0 2.09800366,0 L9.89659168,0 C10.0040131,0 10.0870295,0.0491475885 10.1243575,0.134863589 L11.8983068,4.10838261 C11.9044189,4.12145279 11.9103783,4.13419561 11.9161194,4.15245645 L11.9166433,4.15409316 L11.9170799,4.15579999 C11.966523,4.36134537 11.9885486,4.54107776 11.9885486,4.73834616 C11.9885486,6.00928582 11.0178481,7.04327898 9.82466447,7.04327898 L9.82466447,7.04327898 Z" id="Shape"></path>
                        <path d="M5.99431797,7.03682572 C4.80109066,7.03682572 3.83032466,5.99418147 3.83032466,4.71260329 C3.83032466,4.56639976 3.94562646,4.4428995 4.08210256,4.4428995 C4.21857866,4.4428995 4.33385863,4.56639976 4.33385863,4.71260329 C4.33385863,5.69326359 5.07873615,6.49110517 5.99429612,6.49110517 C6.90983427,6.49110517 7.65468995,5.69326359 7.65468995,4.71260329 C7.65468995,4.56639976 7.76996992,4.4428995 7.90644602,4.4428995 C8.04290029,4.4428995 8.15818025,4.56639976 8.15818025,4.71260329 C8.15820212,5.99420485 7.18747978,7.03682572 5.99431797,7.03682572 L5.99431797,7.03682572 Z" id="Shape"></path>
                        <path d="M2.37377183,11.9678108 C1.69948992,11.9678108 1.15092232,11.3543311 1.15092232,10.600236 L1.15092232,7.59545277 C1.15092232,7.44066828 1.26415034,7.31938925 1.40868142,7.31938925 C1.55319068,7.31938925 1.66639686,7.44066828 1.66639686,7.59545277 L1.66639686,10.600236 C1.66639686,11.0498592 1.983706,11.4156603 2.37375,11.4156603 L9.62080164,11.4156603 C10.0108456,11.4156603 10.3281548,11.0498592 10.3281548,10.600236 L10.3281548,7.59545277 C10.3281548,7.44066828 10.4413828,7.31938925 10.5859357,7.31938925 C10.7304232,7.31938925 10.8436075,7.44066828 10.8436075,7.59545277 L10.8436075,10.600236 C10.8466199,10.9730983 10.7148589,11.3223688 10.4725986,11.5840294 C10.243523,11.8315209 9.94313151,11.9678108 9.62680468,11.9678108 L2.37377183,11.9678108 L2.37377183,11.9678108 Z" id="Shape"></path>
                        <path d="M4.12103493,11.9741705 C3.90174978,11.9741705 3.71648544,11.8477709 3.71648544,11.6981537 L3.71648544,7.6018125 C3.71648544,7.45736257 3.90931362,7.32579575 4.12103493,7.32579575 C4.34035283,7.32579575 4.52568266,7.45219529 4.52568266,7.6018125 L4.52568266,11.6981537 C4.52568269,11.8477709 4.34035283,11.9741705 4.12103493,11.9741705 L4.12103493,11.9741705 Z" id="Shape"></path>
                    </g>
                </g>
            </g>
        </g>
    </g>
</svg>
