<?xml version="1.0" encoding="UTF-8"?>
<svg width="18px" height="18px" viewBox="0 0 18 18" version="1.1" xmlns="http://www.w3.org/2000/svg" xmlns:xlink="http://www.w3.org/1999/xlink">
    <!-- Generator: Sketch 39 (31667) - http://www.bohemiancoding.com/sketch -->
    <title>二维码</title>
    <desc>Created with Sketch.</desc>
    <defs></defs>
    <g id="首页/个人信息" stroke="none" stroke-width="1" fill="none" fill-rule="evenodd">
        <g id="10-我" transform="translate(-325.000000, -115.000000)" fill="#ACB1B7">
            <g id="车主" transform="translate(0.000000, 76.000000)">
                <path d="M338.5,57 L338.5,52.5 L343,52.5 L343,57 L338.5,57 L338.5,57 Z M340.428571,48.6435 L338.5,48.6435 L338.5,50.5720714 L336.571429,50.5720714 L336.571429,46.7142857 L338.5,46.7142857 L338.5,45.4292143 L340.428571,45.4292143 L340.428571,48.0006428 L343,48.0006428 L343,50.5720714 L340.428571,50.5720714 L340.428571,48.6435 L340.428571,48.6435 Z M334.642857,52.5 L334.642857,50.5720714 L336.571429,50.5720714 L336.571429,52.5 L334.642857,52.5 L334.642857,52.5 Z M336.571429,57 L334.642857,57 L334.642857,55.0720714 L336.571429,55.0720714 L336.571429,57 L336.571429,57 Z M332.071429,55.0720714 L332.071429,57 L329.5,57 L329.5,54.4292143 L332.071429,54.4292143 L332.071429,52.5 L334.642857,52.5 L334.642857,55.0720714 L332.071429,55.0720714 L332.071429,55.0720714 Z M329.5,54.4292143 L327.571429,54.4292143 L327.571429,52.5 L325,52.5 L325,50.5720714 L332.071429,50.5720714 L332.071429,52.5 L329.5,52.5 L329.5,54.4292143 L329.5,54.4292143 Z M325,57 L325,54.4292143 L327.571429,54.4292143 L327.571429,57 L325,57 L325,57 Z M336.571429,42.8571429 L336.571429,40.9292143 L336.571429,39 L338.5,39 L338.5,40.9292143 L340.428571,40.9292143 L340.428571,42.8571429 L338.5,42.8571429 L336.571429,42.8571429 L336.571429,42.8571429 Z M343,39 L343,40.9292143 L340.428571,40.9292143 L340.428571,39 L343,39 L343,39 Z M343,42.8571429 L343,45.4292143 L340.428571,45.4292143 L340.428571,42.8571429 L343,42.8571429 L343,42.8571429 Z M326.928571,48.6435 L325,48.6435 L325,46.7142857 L325,40.9292143 L325,39 L326.928571,39 L332.714286,39 L334.642857,39 L334.642857,40.9292143 L334.642857,46.7142857 L334.642857,48.6435 L332.714286,48.6435 L326.928571,48.6435 L326.928571,48.6435 Z M332.714286,40.9292143 L326.928571,40.9292143 L326.928571,46.7142857 L332.714286,46.7142857 L332.714286,40.9292143 L332.714286,40.9292143 Z M330.785714,44.7863572 L328.857143,44.7863572 L328.857143,42.8571429 L330.785714,42.8571429 L330.785714,44.7863572 L330.785714,44.7863572 Z" id="二维码"></path>
            </g>
        </g>
    </g>
</svg>