<?xml version="1.0" encoding="UTF-8"?>
<svg width="54px" height="54px" viewBox="0 0 54 54" version="1.1" xmlns="http://www.w3.org/2000/svg" xmlns:xlink="http://www.w3.org/1999/xlink">
    <!-- Generator: Sketch 43.1 (39012) - http://www.bohemiancoding.com/sketch -->
    <title>我的-filled</title>
    <desc>Created with Sketch.</desc>
    <defs></defs>
    <g id="CPL线下推广" stroke="none" stroke-width="1" fill="none" fill-rule="evenodd">
        <g id="我的-filled" fill-rule="nonzero" fill="#5BAFFF">
            <g transform="translate(9.500000, 7.000000)" id="Shape">
                <path d="M17.500001,22.2222201 C11.9344474,22.2222201 7.4800005,17.2199983 7.4800005,11.11111 C7.4800005,5.00222174 11.9344474,0 17.500001,0 C23.0655545,0 27.5200014,5.00222174 27.5200014,11.11111 C27.5200014,17.2199983 23.0655545,22.2222201 17.500001,22.2222201 Z M0.800000191,32.2222191 C0.799999157,30.1580761 1.62214988,28.1785884 3.08536945,26.7197485 C4.54858902,25.2609086 6.53285665,24.4423779 8.60112721,24.4444421 L26.3988747,24.4444421 C30.7052482,24.4444421 34.2000017,27.9311084 34.2000017,32.2222191 C34.2000028,34.2863621 33.377852,36.2658497 31.9146325,37.7246896 C30.4514129,39.1835296 28.4671453,40.0020602 26.3988747,39.9999961 L8.60112721,39.9999961 C4.29475368,39.9999961 0.800000191,36.5133298 0.800000191,32.2222191 Z"></path>
            </g>
        </g>
    </g>
</svg>