<?xml version="1.0" encoding="UTF-8"?>
<svg width="67px" height="18px" viewBox="0 0 67 18" version="1.1" xmlns="http://www.w3.org/2000/svg" xmlns:xlink="http://www.w3.org/1999/xlink">
    <!-- Generator: Sketch 43.1 (39012) - http://www.bohemiancoding.com/sketch -->
    <title>试驾服务</title>
    <desc>Created with Sketch.</desc>
    <defs></defs>
    <g id="试驾" stroke="none" stroke-width="1" fill="none" fill-rule="evenodd">
        <g id="试驾服务" fill="#305E80">
            <g id="Group" transform="translate(0.000000, 0.500000)">
                <text id="接车服务" font-family="TRENDS, ShiShangZhongHeiJianTi" font-size="13" font-weight="normal">
                    <tspan x="15" y="13.5">接车服务</tspan>
                </text>
                <path d="M3.83134266,11.1315447 C3.83223269,11.8851826 3.25688705,12.468373 2.51205284,12.468373 C1.81095761,12.4887554 1.16135742,11.8776666 1.18589703,11.0832639 C1.20738508,10.4016012 1.80116721,9.82210507 2.52235185,9.82261463 C3.24607946,9.8228694 3.83070693,10.4072063 3.83134266,11.1315447 Z M11.7657723,11.1367676 C11.764628,11.8975394 11.1916982,12.4686278 10.4303347,12.468373 C9.70126688,12.4678635 9.12960853,11.8769023 9.12528549,11.1295064 C9.12121674,10.4256779 9.72695081,9.79637232 10.5003934,9.81968465 C11.1819078,9.84019443 11.7666624,10.4301365 11.7657723,11.1367676 Z M6.62059292,3.90319356 L6.62059292,3.90319356 C4.25118604,3.90319355 2.22355356,5.39123361 1.41603528,7.48284647 L0.456956342,7.48284647 C0.768469462,6.52041666 1.30338199,5.63786023 2.03817148,4.90154729 C3.26197298,3.67542063 4.88947006,3 6.62059292,3 C8.35158864,2.99999999 9.97895856,3.67542062 11.2027601,4.90154729 C12.1543373,5.85493242 12.7716418,7.05290594 13,8.35355563 L12.0821171,8.35355563 C11.5554692,5.81607855 9.30723457,3.90319356 6.62059292,3.90319356 Z M6.65072705,15.0965516 L6.65072705,15.0965516 C8.52641742,15.0965517 10.1868459,14.1632941 11.1981827,12.7366559 L12.2711865,12.7366559 C11.9869505,13.2346414 11.6378781,13.6925448 11.2331485,14.0983253 C10.009347,15.324452 8.38184991,16 6.65072705,16 C4.91960418,16 3.29223427,15.324452 2.06843275,14.0983253 C1.6838019,13.7132033 1.34886826,13.2812976 1.07146365,12.8127076 L2.15591072,12.8127076 C3.17220635,14.1966702 4.80822236,15.0965516 6.65072705,15.0965516 Z M12.7724047,10.5249145 L12.7724047,10.5249145 C12.7777449,10.5799469 12.8067347,10.6438966 12.846405,10.6824957 C12.9824536,10.8175288 13.0055945,11.2477241 12.8729789,11.3875981 C12.844752,11.4175347 12.8083877,11.451293 12.7711332,11.4585542 C12.5922357,11.4932042 12.4120667,11.5195739 12.2247774,11.5501475 C12.4399121,10.3167596 11.5455516,9.45356641 10.6701362,9.35636801 C10.1809971,9.30209997 9.72987521,9.41445774 9.3439804,9.72159452 C8.78579977,10.1652931 8.56786774,10.7563817 8.65292989,11.4647963 L4.29912092,11.4647963 C4.35404895,11.1130731 4.31323438,10.7795667 4.17922016,10.4581622 C4.0424087,10.1303883 3.82918114,9.86439848 3.537376,9.66465129 C3.25027534,9.46834363 2.93253197,9.35751453 2.5826201,9.34604945 C2.11268033,9.33063528 1.69474416,9.47178316 1.33911063,9.77866515 C0.852514424,10.1981597 0.660774921,10.7416045 0.703623871,11.3867064 C0.59236919,11.37384 0.493066439,11.3605915 0.393509394,11.3509099 C0.139085824,11.3260688 -0.0212480712,11.2533293 0.00354582991,10.9147272 C0.00659739627,10.8726886 -0.00789749822,10.8259366 0.00647024943,10.7893757 C0.0377487097,10.7073367 0.0654670162,10.6123039 0.125735265,10.5567619 C0.185876368,10.501857 0.210797416,10.4553597 0.207237262,10.3789258 C0.202532787,10.269498 0.205202898,10.159688 0.205202898,10.0500054 L0.205202898,9.39280149 C0.386770541,9.39280149 0.553970436,9.39458495 0.721170331,9.39241932 C0.864974955,9.39050847 0.964532,9.30235474 0.959191776,9.18604787 C0.95436014,9.07419965 0.860143319,9.00082313 0.717483031,9.00005879 C0.550155975,8.99942185 0.38295608,8.9999314 0.204821444,8.9999314 C0.204821444,8.94477162 0.20418571,8.9037521 0.204821444,8.86260521 C0.210161681,8.56655136 0.24385596,8.5223471 0.521420494,8.42909778 C0.646661481,8.38718654 0.769613798,8.33903322 0.893583303,8.29368245 L0.889387401,8.27253575 C0.858490382,8.26705799 0.827466229,8.26196239 0.796696356,8.25584768 C0.63928688,8.22412761 0.562235065,8.12845789 0.587919008,7.99584513 C0.61131428,7.87342354 0.716974444,7.81584336 0.87260385,7.84042959 C0.992886054,7.8591559 1.11647412,7.86692667 1.23319617,7.89864673 C1.49130703,7.96845632 1.70428028,7.90348754 1.92195802,7.7506198 C2.31738894,7.47291007 2.72756906,7.21583748 3.13889352,6.9625866 C3.40437897,6.79901812 3.69224251,6.68130996 4.00439137,6.63366618 C4.67217376,6.53188173 5.34300772,6.49073483 6.01752896,6.53404736 C6.64462393,6.57430253 7.26078416,6.66500406 7.83460402,6.94768199 C8.49056163,7.27061509 9.09655,7.66883555 9.65752789,8.13750256 C9.6994868,8.17240737 9.7564492,8.19648403 9.81023289,8.2093504 C10.3076367,8.32744073 10.8103807,8.42616782 11.3026986,8.56247489 C11.7398341,8.68336778 12.157516,8.86298738 12.5403592,9.11369048 C12.6732291,9.20095248 12.7132808,9.28706798 12.6804766,9.41585904 C12.5443008,9.3914002 12.407998,9.36668658 12.2714408,9.34299208 C12.1460726,9.32120844 12.0438455,9.38337465 12.0204502,9.49420376 C11.9984536,9.59866337 12.0772855,9.6981548 12.2045608,9.72261364 C12.3365407,9.7480916 12.4680119,9.78261424 12.6010089,9.79242325 C12.7088306,9.80044879 12.7336245,9.85127732 12.7371847,9.94414447 C12.7446864,10.1380317 12.7537139,10.3317916 12.7724047,10.5249145 Z M3.0829483,8.35546649 L4.82780318,8.50298386 L4.73244202,7.20653803 C4.00782438,7.33316348 3.50063017,7.75405933 3.0829483,8.35546649 Z M5.68885085,9.39025369 L5.68885085,9.39025369 C5.81091313,9.38311987 5.89419521,9.29929739 5.89139795,9.19318171 C5.88809209,9.08502777 5.8055729,9.00337091 5.68300203,9.00031356 C5.52344792,8.99698022 5.36384134,8.9970227 5.20428903,9.00044097 C5.08794841,9.00222442 5.00225053,9.07687483 4.99360445,9.17725798 C4.98470407,9.27674939 5.07040195,9.37241912 5.18496249,9.39038108 C5.19335427,9.39190977 5.2016189,9.39241932 5.21013784,9.39241932 L5.44943076,9.39241932 L5.44943076,9.39114543 C5.5291527,9.39114543 5.60938322,9.3952219 5.68885085,9.39025369 Z M5.25273249,8.54311164 L5.25273249,8.54311164 C6.52179876,8.6096091 7.78221896,8.76183991 9.05484538,8.47291987 C7.91801325,7.50144537 6.65123565,7.00105831 5.15292115,7.16984977 C5.18610683,7.62437652 5.21878392,8.0772472 5.25273249,8.54311164 Z" id="Shape" fill-rule="nonzero"></path>
            </g>
        </g>
    </g>
</svg>