<?xml version="1.0" encoding="UTF-8"?>
<svg width="36px" height="36px" viewBox="0 0 36 36" version="1.1" xmlns="http://www.w3.org/2000/svg" xmlns:xlink="http://www.w3.org/1999/xlink">
    <!-- Generator: Sketch 43.1 (39012) - http://www.bohemiancoding.com/sketch -->
    <title>在线预约</title>
    <desc>Created with Sketch.</desc>
    <defs>
        <linearGradient x1="50%" y1="100%" x2="50%" y2="0%" id="linearGradient-1">
            <stop stop-color="#F2DE42" offset="0%"></stop>
            <stop stop-color="#FBC876" offset="100%"></stop>
        </linearGradient>
        <path d="M22.9980761,8.49786353 L13.0013118,8.49786353 C11.6822139,8.49786353 10.6094626,9.44107 10.6094626,10.6010828 L10.6094626,25.3995271 C10.6094626,26.5588721 11.682826,27.5027463 13.0013118,27.5027463 L22.998716,27.5027463 C24.3179252,27.5027463 25.3905374,26.559516 25.3905374,25.3995271 L25.3905374,10.6010828 C25.3905374,9.44173773 24.3179252,8.49786353 22.998716,8.49786353 L22.9980761,8.49786353 L22.9980761,8.49786353 L22.9980761,8.49786353 Z" id="path-2"></path>
        <filter x="-45.7%" y="-35.5%" width="191.3%" height="171.0%" filterUnits="objectBoundingBox" id="filter-3">
            <feMorphology radius="0.25" operator="dilate" in="SourceAlpha" result="shadowSpreadOuter1"></feMorphology>
            <feOffset dx="0" dy="0" in="shadowSpreadOuter1" result="shadowOffsetOuter1"></feOffset>
            <feGaussianBlur stdDeviation="2" in="shadowOffsetOuter1" result="shadowBlurOuter1"></feGaussianBlur>
            <feComposite in="shadowBlurOuter1" in2="SourceAlpha" operator="out" result="shadowBlurOuter1"></feComposite>
            <feColorMatrix values="0 0 0 0 0.952941176   0 0 0 0 0.635294118   0 0 0 0 0.11372549  0 0 0 0.6 0" type="matrix" in="shadowBlurOuter1"></feColorMatrix>
        </filter>
        <linearGradient x1="50%" y1="0%" x2="50%" y2="100%" id="linearGradient-4">
            <stop stop-color="#F3C446" offset="0%"></stop>
            <stop stop-color="#F3DA6F" offset="100%"></stop>
        </linearGradient>
        <linearGradient x1="50%" y1="0%" x2="50%" y2="100%" id="linearGradient-5">
            <stop stop-color="#F8F0D9" offset="0.275031888%"></stop>
            <stop stop-color="#F7E59B" offset="100%"></stop>
        </linearGradient>
    </defs>
    <g id="试驾" stroke="none" stroke-width="1" fill="none" fill-rule="evenodd">
        <g id="09-试驾车详情" transform="translate(-59.000000, -773.000000)">
            <g id="Car-Info" transform="translate(0.000000, 64.000000)">
                <g id="试驾流程" transform="translate(0.000000, 645.000000)">
                    <g id="在线预约" transform="translate(59.000000, 64.000000)">
                        <circle id="Oval-3" fill="url(#linearGradient-1)" cx="18" cy="18" r="18"></circle>
                        <g id="Shape">
                            <use fill="black" fill-opacity="1" filter="url(#filter-3)" xlink:href="#path-2"></use>
                            <use fill-opacity="0.799999952" fill="#FFFFFF" fill-rule="evenodd" xlink:href="#path-2"></use>
                        </g>
                        <path d="M17.99936,26.4288265 C17.0000064,26.4288265 16.190073,25.7169978 16.190073,24.8384206 C16.190073,23.9598435 17.0000064,23.2480148 17.99936,23.2480148 C18.9986024,23.2480148 19.8084801,23.9598435 19.8084801,24.8384206 C19.8085079,25.7169977 18.9986024,26.4288265 17.99936,26.4288265 L17.99936,26.4288265 L17.99936,26.4288265 Z" id="Path" fill="#F5BC60"></path>
                        <path d="M24.0044968,22.3554862 L11.9948632,22.3554862 L11.9948632,10.4777624 C11.9948632,10.0913697 12.4791538,9.68594593 12.9186769,9.68594593 L23.0806553,9.68594593 C23.5201784,9.68594593 24.004469,10.0913697 24.004469,10.4777624 L24.0044968,22.3554862 L24.0044968,22.3554862 L24.0044968,22.3554862 Z" id="Path" fill="url(#linearGradient-4)"></path>
                        <path d="M18.0042887,19.0557629 L17.91566,19.0191895 C17.8784855,19.0042838 17.007924,18.6425042 16.1244931,17.9609437 C15.6012888,17.5571542 15.1824504,17.1262716 14.8822458,16.6777763 C14.499148,16.1073286 14.3047313,15.5084177 14.3047313,14.8986784 C14.3047313,13.9989695 14.7993408,13.2550793 15.6270159,12.9082053 C16.0280022,12.7398292 16.4713553,12.6834192 16.904992,12.7456022 C17.3081168,12.8025178 17.6869366,12.9596956 18.0114345,13.200882 C18.3945323,12.9569885 18.8162384,12.8025066 19.2365107,12.7523755 C19.6953796,12.6981782 20.1413907,12.7659332 20.5287901,12.9502152 C20.8804372,13.1168733 21.1720621,13.3756725 21.3736245,13.6995084 C21.5880446,14.0436864 21.6966885,14.4474648 21.6952547,14.8986784 C21.6952547,15.4799766 21.5008498,16.0612526 21.1163063,16.626286 C20.8161135,17.0680081 20.3986972,17.5016089 19.8755047,17.9135196 C18.9934958,18.6086267 18.1257903,19.0002176 18.0886276,19.0164712 L18.0042887,19.055774 L18.0042887,19.0557629 Z" id="Path" fill="url(#linearGradient-5)"></path>
                    </g>
                </g>
            </g>
        </g>
    </g>
</svg>