<?xml version="1.0" encoding="UTF-8"?>
<svg width="37px" height="37px" viewBox="0 0 37 37" version="1.1" xmlns="http://www.w3.org/2000/svg" xmlns:xlink="http://www.w3.org/1999/xlink">
    <!-- Generator: Sketch 43.1 (39012) - http://www.bohemiancoding.com/sketch -->
    <title>尊享试驾</title>
    <desc>Created with Sketch.</desc>
    <defs>
        <linearGradient x1="50%" y1="100%" x2="50%" y2="0%" id="linearGradient-1">
            <stop stop-color="#FDB6CB" offset="0%"></stop>
            <stop stop-color="#FF8591" offset="100%"></stop>
        </linearGradient>
        <path d="M18.500115,30 C12.14786,30 7,24.85076 7,18.500115 C7,12.14786 12.14786,7 18.500115,7 C24.850875,7 30,12.14786 30,18.500115 C30,24.85076 24.850875,30 18.500115,30" id="path-2"></path>
        <filter x="-26.1%" y="-26.1%" width="152.2%" height="152.2%" filterUnits="objectBoundingBox" id="filter-3">
            <feOffset dx="0" dy="0" in="SourceAlpha" result="shadowOffsetOuter1"></feOffset>
            <feGaussianBlur stdDeviation="2" in="shadowOffsetOuter1" result="shadowBlurOuter1"></feGaussianBlur>
            <feComposite in="shadowBlurOuter1" in2="SourceAlpha" operator="out" result="shadowBlurOuter1"></feComposite>
            <feColorMatrix values="0 0 0 0 0.911564626   0 0 0 0 0.40666846   0 0 0 0 0.459601122  0 0 0 1 0" type="matrix" in="shadowBlurOuter1"></feColorMatrix>
        </filter>
        <linearGradient x1="50%" y1="0%" x2="50%" y2="100%" id="linearGradient-4">
            <stop stop-color="#F98EAA" offset="0%"></stop>
            <stop stop-color="#FEB2BA" offset="100%"></stop>
        </linearGradient>
        <linearGradient x1="50%" y1="0%" x2="50%" y2="100%" id="linearGradient-5">
            <stop stop-color="#FCBAC6" offset="0%"></stop>
            <stop stop-color="#FDD8E3" offset="100%"></stop>
        </linearGradient>
    </defs>
    <g id="试驾" stroke="none" stroke-width="1" fill="none" fill-rule="evenodd">
        <g id="09-试驾车详情" transform="translate(-280.000000, -773.000000)">
            <g id="Car-Info" transform="translate(0.000000, 64.000000)">
                <g id="试驾流程" transform="translate(0.000000, 645.000000)">
                    <g id="尊享试驾" transform="translate(280.000000, 64.000000)">
                        <circle id="Oval-3" fill="url(#linearGradient-1)" cx="18.5" cy="18.5" r="18"></circle>
                        <g id="Combined-Shape">
                            <use fill="black" fill-opacity="1" filter="url(#filter-3)" xlink:href="#path-2"></use>
                            <use fill-opacity="0.899999976" fill="#FFFFFF" fill-rule="evenodd" xlink:href="#path-2"></use>
                        </g>
                        <path d="M27.1644335,14.9834495 C26.7431885,14.9415895 26.1129885,14.4902145 25.5749035,13.7964195 C24.9373435,12.9714095 24.6575485,12.1117845 24.8954835,11.7641395 C23.2179785,10.2192295 20.9737535,9.2673745 18.4987235,9.2673745 C16.0538235,9.2673745 13.8383485,10.1963445 12.1680885,11.7020395 C12.4853735,12.0020745 12.2127085,12.9209245 11.5348985,13.7964195 C10.9478235,14.5565695 10.2467835,15.0281845 9.8328985,14.9848295 C9.3799135,16.0681295 9.1261085,17.2537795 9.1261085,18.4985395 C9.1261085,23.5974095 13.3219985,27.7267145 18.5001035,27.7267145 C23.6752185,27.7267145 27.8739835,23.5974095 27.8739835,18.4985395 C27.8726035,17.2537795 27.6201785,16.0681295 27.1644335,14.9834495" id="Fill-4" fill="url(#linearGradient-4)"></path>
                        <path d="M24.197226,20.460865 C21.4482111,20.460865 20.3847683,23.3254 20.3847683,23.3254 L20.4074696,26.928465 L18.5453948,26.96446 L18.5453948,26.970325 L18.3589035,26.96745 L18.1752499,26.970325 L18.1752499,26.96446 L16.2746964,26.928465 L16.293198,23.3254 C16.293198,23.3254 15.4219218,20.460865 12.6742689,20.460865 C10.9560069,20.460865 10.2739461,20.44649 10.2739461,20.44649 C10.2739461,20.44649 9.78427888,19.63873 9.85976073,17.822765 C13.8273819,17.65245 12.99606,15.041835 18.1737744,14.917865 L18.1737744,14.90625 C18.2377921,14.90625 18.2932968,14.912115 18.35879,14.912115 C18.4229212,14.912115 18.4770638,14.90625 18.5439192,14.90625 L18.5439192,14.917865 C23.7287845,15.040455 23.0412754,17.652565 27.0103721,17.822765 C27.0871025,19.63873 26.5945977,20.44649 26.5945977,20.44649 C26.5945977,20.44649 25.915488,20.460865 24.197226,20.460865 Z M18.4187101,15.7226695 C16.5550462,15.7226695 15.0460903,17.0367745 15.0460903,18.6579295 C15.0460903,20.2777045 16.5565218,21.5930745 18.4187101,21.5930745 C20.2807849,21.5930745 21.7926921,20.2777045 21.7926921,18.6579295 C21.7926921,17.0367745 20.2822605,15.7226695 18.4187101,15.7226695 Z" id="Combined-Shape" fill-opacity="0.899999976" fill="#FFFFFF"></path>
                        <path d="M18.4068316,16.34375 C16.8312552,16.34375 15.5555556,17.389561 15.5555556,18.6797333 C15.5555556,19.9688072 16.8325027,21.015625 18.4068316,21.015625 C19.9810646,21.015625 21.2592593,19.9688072 21.2592593,18.6797333 C21.2592593,17.389561 19.9823121,16.34375 18.4068316,16.34375" id="Fill-1" fill="url(#linearGradient-5)"></path>
                    </g>
                </g>
            </g>
        </g>
    </g>
</svg>