<?xml version="1.0" encoding="UTF-8"?>
<svg width="10px" height="14px" viewBox="0 0 10 14" version="1.1" xmlns="http://www.w3.org/2000/svg" xmlns:xlink="http://www.w3.org/1999/xlink">
    <!-- Generator: Sketch 39 (31667) - http://www.bohemiancoding.com/sketch -->
    <title>地址</title>
    <desc>Created with Sketch.</desc>
    <defs></defs>
    <g id="试驾" stroke="none" stroke-width="1" fill="none" fill-rule="evenodd">
        <g id="15-试驾车详情-预约试驾" transform="translate(-34.000000, -193.000000)" fill="#acb1b7">
            <g id="car-info" transform="translate(12.000000, 76.000000)">
                <path d="M29.8125027,121.925539 C29.8125027,120.550651 28.553351,119.436183 27.0000087,119.436183 C25.4466663,119.436183 24.1875146,120.550666 24.1875146,121.925539 C24.1875146,123.300412 25.446649,124.414895 27.0000087,124.414895 C28.5533683,124.414895 29.8125027,123.300412 29.8125027,121.925539 L29.8125027,121.925539 Z M24.8125114,121.925539 C24.8125114,120.856422 25.7918343,119.989371 27.0000087,119.989371 C28.2082004,119.989371 29.187506,120.856437 29.187506,121.925539 C29.187506,122.994902 28.2082004,123.861707 27.0000087,123.861707 C25.7918169,123.861707 24.8125114,122.994902 24.8125114,121.925539 L24.8125114,121.925539 Z M32,121.925539 C32,119.481564 29.7615427,117.5 26.9999913,117.5 C24.2384399,117.5 22,119.481549 22,121.925539 C22,124.369529 27.0000087,129.670225 27.0000087,129.670225 C27.0000087,129.670225 32,124.369514 32,121.925539 L32,121.925539 Z M27.0000087,118.053189 C29.41608,118.053189 31.3750032,119.786783 31.3750032,121.925539 C31.3750032,124.064295 27.0000087,128.840434 27.0000087,128.840434 C27.0000087,128.840434 22.6249967,124.06428 22.6249967,121.925539 C22.6249967,119.786783 24.58392,118.053189 27.0000087,118.053189 L27.0000087,118.053189 Z M29.2102107,127.897191 C29.0733404,128.06344 28.9398523,128.222904 28.8114984,128.374186 C30.1458586,128.510238 31.0624962,128.791829 31.0624962,129.117021 C31.0624962,129.575148 29.2436695,129.946811 26.9999913,129.946811 C24.7563305,129.946811 22.9374864,129.575148 22.9374864,129.117021 C22.9374864,128.791829 23.8541414,128.510253 25.1885016,128.374186 C25.0601477,128.222904 24.9266423,128.06344 24.7897893,127.897191 C23.315454,128.130207 22.3124897,128.58901 22.3124897,129.117021 C22.3124897,129.880904 24.4111973,130.5 27.0000087,130.5 C29.58882,130.5 31.6875103,129.880904 31.6875103,129.117021 C31.6875103,128.58901 30.684546,128.130207 29.2102107,127.897191 L29.2102107,127.897191 Z" id="地址"></path>
            </g>
        </g>
    </g>
</svg>
