<?xml version="1.0" encoding="UTF-8"?>
<svg width="50px" height="50px" viewBox="0 0 50 50" version="1.1" xmlns="http://www.w3.org/2000/svg" xmlns:xlink="http://www.w3.org/1999/xlink">
    <!-- Generator: Sketch 43.1 (39012) - http://www.bohemiancoding.com/sketch -->
    <title>订单中心</title>
    <desc>Created with Sketch.</desc>
    <defs></defs>
    <g id="首页" stroke="none" stroke-width="1" fill="none" fill-rule="evenodd">
        <g id="01-首页" transform="translate(-12.000000, -416.000000)">
            <g id="List" transform="translate(12.000000, 115.000000)">
                <g id="item4" transform="translate(0.000000, 301.000000)">
                    <g id="订单中心">
                        <rect id="Rectangle-3-Copy" fill="#FF6666" x="0" y="0" width="50" height="50"></rect>
                        <g id="活动" fill="#FFFFFF">
                            <path d="M25.5,26 L25.5,19 L24.5,19 L24.5,26 L14.5035949,26 C13.39704,26 12.5,25.1134452 12.5,23.9940809 L12.5,21.0059191 C12.5,19.8980806 13.3897632,19 14.5035949,19 L18.8541756,19 C18.0237549,18.2670555 17.5,17.1946925 17.5,16 C17.5,13.790861 19.290861,12 21.5,12 C23.0060134,12 24.3176355,12.8322876 25,14.0619964 C25.6823645,12.8322876 26.9939866,12 28.5,12 C30.709139,12 32.5,13.790861 32.5,16 C32.5,17.1946925 31.9762451,18.2670555 31.1458244,19 L35.4964051,19 C36.60296,19 37.5,19.8865548 37.5,21.0059191 L37.5,23.9940809 C37.5,25.1019194 36.6102368,26 35.4964051,26 L25.5,26 Z M24.5,27 L14.5,27 L14.5,36.9914698 C14.5,38.0980496 15.3929956,39 16.4945615,39 L33.5054385,39 C34.5976562,39 35.5,38.1007504 35.5,36.9914698 L35.5,27 L25.5,27 L25.5,39 L24.5,39 L24.5,27 Z M25.5,16 L25.5,19 L28.5,19 C30.1568542,19 31.5,17.6568542 31.5,16 C31.5,14.3431458 30.1568542,13 28.5,13 C26.8431458,13 25.5,14.3431458 25.5,16 Z M24.5,16 C24.5,14.3431458 23.1568542,13 21.5,13 C19.8431458,13 18.5,14.3431458 18.5,16 C18.5,17.6568542 19.8431458,19 21.5,19 L24.5,19 L24.5,16 Z" id="Combined-Shape"></path>
                            <path d="M25.5,16 C25.5,14.3431458 26.8431458,13 28.5,13 C30.1568542,13 31.5,14.3431458 31.5,16 C31.5,17.6568542 30.1568542,19 28.5,19 L25.5,19 L25.5,16 Z M24.5,16 C24.5,14.3431458 23.1568542,13 21.5,13 C19.8431458,13 18.5,14.3431458 18.5,16 C18.5,17.6568542 19.8431458,19 21.5,19 L24.5,19 L24.5,16 Z" id="Combined-Shape" fill-opacity="0.5"></path>
                        </g>
                    </g>
                </g>
            </g>
        </g>
    </g>
</svg>