<?xml version="1.0" encoding="UTF-8"?>
<svg width="50px" height="51px" viewBox="0 0 50 51" version="1.1" xmlns="http://www.w3.org/2000/svg" xmlns:xlink="http://www.w3.org/1999/xlink">
    <!-- Generator: Sketch 43.1 (39012) - http://www.bohemiancoding.com/sketch -->
    <title>车头条</title>
    <desc>Created with Sketch.</desc>
    <defs></defs>
    <g id="首页" stroke="none" stroke-width="1" fill="none" fill-rule="evenodd">
        <g id="01-首页" transform="translate(-12.000000, -192.000000)">
            <g id="List" transform="translate(12.000000, 115.000000)">
                <g id="item2" transform="translate(0.000000, 74.500000)">
                    <g id="车头条" transform="translate(0.000000, 3.000000)">
                        <rect id="Rectangle-3-Copy" fill="#F1F1F1" x="0" y="0" width="50" height="50"></rect>
                        <path d="M4.24014108,18.6703691 L4.24014108,7.77568932 L18.9970973,7.77568932 L18.9970973,18.6703691 L4.24014108,18.6703691 Z M17.8870336,12.4628535 C17.8870336,12.4628535 17.9429965,11.7290362 16.8655117,11.1750199 C16.8655117,11.1750199 16.5189503,10.980389 15.0464331,10.9681569 C14.9531237,10.9672909 13.1906891,9.39216559 13.1085042,9.33371134 C12.9104204,9.1870345 12.8687604,9.08820353 12.3739483,9.051832 C11.7670969,9.05118251 8.24790335,9.04674432 8.24790335,9.04674432 C8.24790335,9.04674432 7.00048649,8.98266115 6.69887701,9.51113079 C6.6037514,9.62121961 5.81187043,10.8938983 5.79756753,10.9617702 C5.79756753,10.9617702 5.77134556,10.9920798 5.73104772,11.0572455 C5.63614914,11.2100925 5.4623576,11.7674645 5.36723199,12.3512492 C5.35690212,12.3870794 5.34975067,12.4237757 5.34975067,12.4628535 L5.34975067,13.1033604 C5.34975067,13.3390176 5.55033176,13.5302929 5.79756753,13.5302929 L5.8176597,13.5302929 C5.80540007,13.460689 5.79756753,13.3898944 5.79756753,13.3168266 C5.79756753,12.6095303 6.39908377,12.0358128 7.14079109,12.0358128 C7.88249841,12.0358128 8.48412816,12.6095303 8.48412816,13.3168266 C8.48412816,13.3898944 8.47629563,13.460689 8.46392249,13.5302929 L14.3251584,13.5302929 C14.3127853,13.460689 14.3049528,13.3898944 14.3049528,13.3168266 C14.3049528,12.6095303 14.9065825,12.0358128 15.6482898,12.0358128 C16.3899972,12.0358128 16.9915134,12.6095303 16.9915134,13.3168266 C16.9915134,13.3898944 16.9836809,13.460689 16.9714212,13.5302929 L17.4393303,13.5302929 C17.6864525,13.5302929 17.8870336,13.3390176 17.8870336,13.1033604 L17.8870336,12.4628535 Z M12.1991578,9.6874461 C12.4230095,9.6874461 12.7377867,10.061012 12.7377867,10.061012 L13.6682696,10.9950891 L13.0080661,10.9538464 C12.8639019,10.6503173 12.69817,10.4848052 12.5457193,10.4551451 C12.3610303,10.4195313 12.283159,10.6082086 12.283159,10.6082086 L12.283159,10.9085985 L9.82737442,10.7548855 L9.82737442,9.69404927 C9.82737442,9.69404927 11.9753062,9.6874461 12.1991578,9.6874461 Z M15.6482898,14.1707998 C16.1427614,14.1707998 16.5438101,13.7884658 16.5438101,13.3168266 C16.5438101,12.8451875 16.1427614,12.4628535 15.6482898,12.4628535 C15.1537048,12.4628535 14.7526561,12.8451875 14.7526561,13.3168266 C14.7526561,13.7884658 15.1537048,14.1707998 15.6482898,14.1707998 Z M7.14079109,14.1707998 C7.63537615,14.1707998 8.0363113,13.7884658 8.0363113,13.3168266 C8.0363113,12.8451875 7.63537615,12.4628535 7.14079109,12.4628535 C6.64620603,12.4628535 6.24527088,12.8451875 6.24527088,13.3168266 C6.24527088,13.7884658 6.64620603,14.1707998 7.14079109,14.1707998 Z M6.06945878,5.62924959 L6.83069069,5.8486695 C6.7794954,6.0522851 6.69901323,6.22234364 6.58913066,6.35884512 C6.47913458,6.4953466 6.3426895,6.59839926 6.17968189,6.66789486 C6.01667428,6.73728221 5.80928229,6.77203001 5.55750591,6.77203001 C5.2519234,6.77203001 5.00241733,6.72970481 4.80876066,6.64505441 C4.61499047,6.560404 4.44789632,6.41145394 4.30725118,6.19831246 C4.16660604,5.98517097 4.09634022,5.71227627 4.09634022,5.37962834 C4.09634022,4.93624209 4.22007162,4.59547552 4.46742091,4.35732861 C4.7147702,4.11907345 5.06473709,4 5.51720807,4 C5.8712615,4 6.1496004,4.06830486 6.35233827,4.20480634 C6.55484912,4.34141607 6.70537007,4.55109359 6.80390113,4.83383892 L6.03687996,4.99653656 C6.00997689,4.91491712 5.98182516,4.8551639 5.95253828,4.81738514 C5.90384032,4.75405971 5.84447195,4.70523959 5.77420614,4.67114129 C5.70382681,4.63704298 5.6252744,4.6199397 5.53832187,4.6199397 C5.34148678,4.6199397 5.19062528,4.69538897 5.08573737,4.84639576 C5.00650387,4.95843306 4.96688712,5.13433702 4.96688712,5.37421591 C4.96688712,5.67125005 5.01422289,5.87486566 5.10878093,5.98506272 C5.20333896,6.09525979 5.33626508,6.15035833 5.50767281,6.15035833 C5.67374532,6.15035833 5.79940648,6.10586816 5.88442925,6.01688781 C5.96945202,5.92790747 6.03109069,5.79865865 6.06945878,5.62924959 Z M7.91213719,5.41346685 L7.16622981,5.33855882 C7.19438155,5.21418118 7.23490642,5.11632446 7.28803146,5.04498863 C7.34104299,4.97376106 7.41743861,4.91184286 7.51710483,4.85945054 C7.58873282,4.82167178 7.68715037,4.79244466 7.81247098,4.77166093 C7.93767808,4.75098545 8.07321504,4.74059358 8.21896836,4.74059358 C8.45292288,4.74059358 8.64079028,4.75315042 8.78268409,4.7780476 C8.9245779,4.80305302 9.04274706,4.85522885 9.13741861,4.93435857 C9.20382492,4.98924061 9.25626887,5.0669631 9.29463695,5.16752604 C9.33300504,5.26808898 9.35218908,5.36410549 9.35218908,5.45557555 L9.35218908,6.31312092 C9.35218908,6.40459098 9.35820538,6.4761433 9.37035149,6.52799438 C9.3824976,6.57984545 9.40906012,6.64587709 9.44992554,6.7263058 L8.71752645,6.7263058 C8.68801254,6.6764032 8.66894201,6.63829969 8.65997432,6.61210353 C8.65100664,6.58590737 8.64203895,6.54477291 8.63318477,6.48870014 C8.5307942,6.58255167 8.42919823,6.64955755 8.32828336,6.68982602 C8.19013554,6.74340908 8.02973878,6.77025473 7.84697955,6.77025473 C7.60405735,6.77025473 7.4195954,6.71667168 7.29382073,6.60928907 C7.16781902,6.50212296 7.10493169,6.36984318 7.10493169,6.21255797 C7.10493169,6.06512339 7.15022419,5.94377671 7.24103623,5.8486262 C7.33173475,5.75358393 7.49916945,5.6828976 7.74345383,5.6365672 C8.03609562,5.58049443 8.2260063,5.54120019 8.31295882,5.51857623 C8.39979784,5.49606052 8.49185854,5.46650866 8.58902742,5.42992063 C8.58902742,5.33855882 8.56916229,5.27447565 8.52954553,5.23788763 C8.48992878,5.20140785 8.42034406,5.18311384 8.32056433,5.18311384 C8.19274639,5.18311384 8.09682617,5.20259858 8.0329172,5.24156808 C7.9830841,5.27209418 7.94278625,5.32935769 7.91213719,5.41346685 Z M8.58902742,5.80478552 C8.48164218,5.84137354 8.36971635,5.87363162 8.25347694,5.90166801 C8.09489642,5.94193648 7.99466263,5.98155547 7.95243503,6.02052496 C7.90895877,6.06079344 7.8872774,6.10647435 7.8872774,6.15767593 C7.8872774,6.21623842 7.90861822,6.2640843 7.9514134,6.30121357 C7.99432209,6.33845109 8.05720942,6.3569616 8.14030244,6.3569616 C8.22725496,6.3569616 8.30807768,6.33693561 8.38288409,6.29666713 C8.45769051,6.25639865 8.51070204,6.20736204 8.54203219,6.14944904 C8.57336234,6.09153604 8.58902742,6.01630327 8.58902742,5.92364247 L8.58902742,5.80478552 Z M9.82772632,4.78446674 L10.5583092,4.78446674 L10.5583092,5.10260936 C10.628575,4.96491715 10.7011111,4.87009138 10.7759175,4.8182403 C10.8507239,4.76649747 10.9430117,4.74062606 11.0530077,4.74062606 C11.1679985,4.74062606 11.2938867,4.77472437 11.4307858,4.84302923 L11.1891123,5.37323084 C11.0970516,5.33664282 11.0242884,5.31834881 10.9705958,5.31834881 C10.8682052,5.31834881 10.7889717,5.35861728 10.7327818,5.43904599 C10.6522996,5.55249052 10.6120018,5.76454951 10.6120018,6.07543948 L10.6120018,6.72633827 L9.82772632,6.72633827 L9.82772632,4.78446674 Z M11.6186532,4.04574586 L12.4872704,4.04574586 L12.4872704,4.98382818 L13.4364832,4.98382818 L13.4364832,4.04574586 L14.3088463,4.04574586 L14.3088463,6.7263058 L13.4364832,6.7263058 L13.4364832,5.64208788 L12.4872704,5.64208788 L12.4872704,6.7263058 L11.6186532,6.7263058 L11.6186532,4.04574586 Z M14.7383873,5.76091236 C14.7383873,5.46463596 14.8431617,5.22053538 15.052824,5.02861062 C15.2624862,4.83657761 15.5457063,4.74056111 15.9022571,4.74056111 C16.3101166,4.74056111 16.6181965,4.85335614 16.8264966,5.07883797 C16.9939313,5.26047911 17.0777054,5.48422895 17.0777054,5.74997925 C17.0777054,6.04863712 16.9738391,6.29327895 16.7661066,6.48412122 C16.558374,6.67485524 16.2710674,6.77022225 15.9041868,6.77022225 C15.5769229,6.77022225 15.3123194,6.69098428 15.1103761,6.53250834 C14.8623457,6.33625364 14.7383873,6.07905498 14.7383873,5.76091236 Z M15.520733,5.75907213 C15.520733,5.93216164 15.5573983,6.06021972 15.6309561,6.1430299 C15.7045138,6.22594832 15.7968016,6.26740753 15.9080463,6.26740753 C16.0205397,6.26740753 16.112941,6.22659781 16.1851366,6.14487012 C16.2573321,6.06325068 16.2934299,5.93216164 16.2934299,5.75171123 C16.2934299,5.58349291 16.2569916,5.45824929 16.1842284,5.37598036 C16.1113518,5.29371143 16.0212208,5.25257696 15.9138356,5.25257696 C15.79998,5.25257696 15.7061031,5.29436092 15.6319777,5.37782058 C15.5577389,5.4613885 15.520733,5.58847235 15.520733,5.75907213 Z M18.3950475,4.04574586 L18.3950475,4.78443426 L18.8245884,4.78443426 L18.8245884,5.32935769 L18.3950475,5.32935769 L18.3950475,6.01738576 C18.3950475,6.10008768 18.4033341,6.15486147 18.4200208,6.18159887 C18.4455617,6.22294984 18.4902866,6.24362532 18.5541956,6.24362532 C18.6117477,6.24362532 18.6922299,6.22782102 18.7957556,6.19621243 L18.8533077,6.70985201 C18.6603322,6.75012049 18.4800703,6.77025473 18.3126356,6.77025473 C18.1182978,6.77025473 17.9751553,6.74654829 17.8830946,6.69902715 C17.7910339,6.65150602 17.7229249,6.57941246 17.6788811,6.48263821 C17.6347237,6.38586397 17.6127018,6.22912001 17.6127018,6.01240632 L17.6127018,5.32935769 L17.3250547,5.32935769 L17.3250547,4.78443426 L17.6127018,4.78443426 L17.6127018,4.42786339 L18.3950475,4.04574586 Z M21.026576,5.70142976 L21.026576,4.07770084 L32.3780808,4.07770084 L32.3780808,5.70142976 L21.026576,5.70142976 Z M34.6484952,5.70142976 L34.6484952,4.07770084 L46,4.07770084 L46,5.70142976 L34.6484952,5.70142976 Z M21.026576,8.94910409 L21.026576,7.32537517 L32.3780808,7.32537517 L32.3780808,8.94910409 L21.026576,8.94910409 Z M34.6484952,8.94910409 L34.6484952,7.32537517 L46,7.32537517 L46,8.94910409 L34.6484952,8.94910409 Z M21.026576,12.1967784 L21.026576,10.5730495 L32.3780808,10.5730495 L32.3780808,12.1967784 L21.026576,12.1967784 Z M34.6484952,12.1967784 L34.6484952,10.5730495 L46,10.5730495 L46,12.1967784 L34.6484952,12.1967784 Z M34.6484952,39.5046513 L34.6484952,37.8809224 L46,37.8809224 L46,39.5046513 L34.6484952,39.5046513 Z M34.6484952,42.7523257 L34.6484952,41.1285968 L46,41.1285968 L46,42.7523257 L34.6484952,42.7523257 Z M34.6629117,46 L34.6629117,44.3762711 L42.608965,44.3762711 L42.608965,46 L34.6629117,46 Z M4,39.5046513 L4,37.8809224 L32.3780808,37.8809224 L32.3780808,39.5046513 L4,39.5046513 Z M4,42.7523257 L4,41.1285968 L32.3780808,41.1285968 L32.3780808,42.7523257 L4,42.7523257 Z M4.0068109,46 L4.0068109,44.3762711 L26.7098204,44.3762711 L26.7098204,46 L4.0068109,46 Z M7.36468817,10.1144327 C7.36468817,10.1144327 7.51872809,9.68750023 8.03635671,9.68750023 L9.37958026,9.68750023 L9.37958026,10.7549396 L7.11574967,10.648856 L7.36468817,10.1144327 Z" id="Combined-Shape" fill="#FFFFFF"></path>
                        <g id="char" transform="translate(0.000000, 7.000000)">
                            <polygon id="Fill-34" fill="#E61F11" points="50 30.7743097 0 35.502271 0 4.72796129 50 0"></polygon>
                            <polygon id="Fill-35" fill="#FEFEFE" points="10.3473384 18.8305291 10.3473384 15.2836746 12.5885343 15.0381665 12.5885343 18.5851336 17.2075107 18.0792449 16.5584371 20.7609057 12.5885343 21.1956996 12.5885343 24.5112423 17.2485831 24.0008468 16.606301 26.758898 12.5885343 27.1988747 12.5885343 28.1242341 10.3473384 29.9778824 10.3473384 27.4443828 5.07228128 28.0220423 5.07228128 25.33441 10.3473384 24.7566378 10.3473384 21.4410951 5.1201452 22.0135718 5.12693671 18.9065814 6.62343892 13.6647181 5.1201452 13.8292165 5.1201452 11.1085718 7.36134108 10.8630637 7.70296444 9.80126074 10.067162 9.54234487 9.79377704 10.5967116 17.2485831 9.7803041 16.606301 12.5713676 9.05598269 13.3982534 7.31347715 19.1627932"></polygon>
                            <path d="M22.6873909,14.1228347 L24.9490691,18.3032331 L22.3046951,18.5927952 L20.0362254,14.4131855 L22.6873909,14.1228347 Z M22.6669086,8.25407506 L24.9217953,12.4351494 L22.2568312,12.7270776 L19.995153,8.54667928 L22.6669086,8.25407506 Z M27.4704414,23.6448093 L24.9832422,27.9928608 L19.0864931,28.6276441 L19.0864931,26.2263064 L23.3706376,25.7571482 L25.2906925,22.3524834 L19.0864931,23.0319967 L19.0864931,20.5755634 L26.5343999,19.759832 L26.5343999,7.54402815 L28.8642087,7.28894307 L28.8642087,19.5047469 L31.8707961,19.1754122 L31.1533763,21.7104892 L29.4929078,21.9032678 L31.8024499,27.2460834 L29.1511766,27.5364343 L27.4704414,23.6448093 Z" id="Fill-36" fill="#FEFEFE"></path>
                            <path d="M43.7122661,20.5436969 L45.7486388,25.1894227 L43.4185066,25.4445078 L41.3890332,20.798106 L43.7122661,20.5436969 Z M38.1503488,24.0057108 L38.1571403,20.5352467 L33.203332,21.0777531 L33.203332,18.6764155 L38.1571403,18.133909 L38.1571403,16.7349972 L40.4803732,16.4805881 L40.4803732,17.8795 L45.9398789,17.2815598 L45.2291428,19.7607525 L40.4803732,20.2807249 L40.4803732,23.827692 L39.5412054,26.1053179 L37.0517424,26.4197801 L38.1503488,24.0057108 Z M34.7816557,21.5988523 L36.9818869,21.357851 L35.3148426,26.4423141 L33.1280865,26.6817381 L34.7816557,21.5988523 Z M41.3138954,12.7763336 L45.9740521,15.6916722 L41.6145542,16.1690553 L39.3256022,14.8556601 L37.207408,16.651734 L33.1486766,17.0962175 L37.2757542,13.3726964 L33.954925,10.8283804 L37.3918565,10.4520623 L39.1889097,11.6321688 L42.4209104,8.22705336 L36.469398,8.87873716 L35.9364267,9.8293347 L33.1007049,10.1398535 L35.3829732,5.84734839 L38.006757,5.56003966 L37.5764129,6.36720818 L45.2634237,5.52533727 L45.2565244,8.63232767 L41.3138954,12.7763336 Z" id="Fill-37" fill="#FEFEFE"></path>
                        </g>
                    </g>
                </g>
            </g>
        </g>
    </g>
</svg>