<?xml version="1.0" encoding="UTF-8"?>
<svg width="19px" height="21px" viewBox="0 0 19 21" version="1.1" xmlns="http://www.w3.org/2000/svg" xmlns:xlink="http://www.w3.org/1999/xlink">
    <!-- Generator: Sketch 43.1 (39012) - http://www.bohemiancoding.com/sketch -->
    <title>Combined-Shape</title>
    <desc>Created with Sketch.</desc>
    <defs></defs>
    <g id="首页" stroke="none" stroke-width="1" fill="none" fill-rule="evenodd">
        <g id="01-首页" transform="translate(-274.000000, -127.000000)" fill-rule="nonzero" fill="#FFFFFF">
            <g id="发现" transform="translate(273.000000, 127.000000)">
                <path d="M15.7674082,20.4983747 C11.0533975,20.5952112 10.557313,16.3327266 10.557313,16.3327266 L6.58762161,16.3327266 C6.58762161,16.3327266 5.65737121,16.1389806 5.68834806,14.9764318 C5.7193249,13.8139559 6.46364422,13.8461011 6.46364422,13.8461011 L15.7362913,13.8461011 C15.7362913,13.8461011 16.8526478,13.878465 16.8837297,12.5222067 C16.9148115,11.1658754 16.6664018,9.1321257 18.2173091,9.13157901 C19.2716419,9.13121455 19.3026887,10.4555099 19.3026887,10.4555099 L19.9849843,16.9785101 C19.9849843,16.9785101 20.4812789,20.4015016 15.7674082,20.4983747 Z M4.11621885,8.47776142 C4.08524214,9.83399608 4.33365085,11.8678742 2.78271522,11.8684209 C1.728247,11.8688218 1.69727029,10.5442953 1.69727029,10.5442953 L1.01501262,4.02145251 C1.01501262,4.02145251 0.518755222,0.598501683 5.23264049,0.501627779 C9.94656077,0.404717429 10.4426782,4.66724209 10.4426782,4.66724209 L14.4123523,4.66724209 C14.4123523,4.66724209 15.3425287,4.86098989 15.311657,6.02354963 C15.2805753,7.18603647 14.5363292,7.15370873 14.5363292,7.15370873 L5.2636872,7.15381806 C5.2636172,7.15381806 4.14719556,7.12149032 4.11621885,8.47776142 Z" id="Combined-Shape"></path>
            </g>
        </g>
    </g>
</svg>