<?xml version="1.0" encoding="UTF-8"?>
<svg width="21px" height="17px" viewBox="0 0 21 17" version="1.1" xmlns="http://www.w3.org/2000/svg" xmlns:xlink="http://www.w3.org/1999/xlink">
    <!-- Generator: Sketch 43.1 (39012) - http://www.bohemiancoding.com/sketch -->
    <title>我的车</title>
    <desc>Created with Sketch.</desc>
    <defs></defs>
    <g id="首页" stroke="none" stroke-width="1" fill="none" fill-rule="evenodd">
        <g id="01-首页" transform="translate(-273.000000, -85.000000)" fill="#FFFFFF">
            <g id="我的车" transform="translate(273.000000, 83.000000)">
                <path d="M4.12160417,9.44345077 L4.12160417,10.01422 C5.84214805,10.1564466 8.07059675,10.2422519 10.5049915,10.2422519 C12.9393863,10.2422519 15.167835,10.1564466 16.8883788,10.01422 L16.8883788,9.28225191 C16.8883788,9.2224159 16.8862014,9.162917 16.8818962,9.10378793 C16.8408661,6.31662362 14.3873973,4.07000732 11.3668199,4.07000732 L9.63255668,4.07000732 C6.58583141,4.07000732 4.11695816,6.35549127 4.11695816,9.1747786 L4.11695816,9.44345077 L4.12160417,9.44345077 Z M2.49184898,9.0007697 C2.76737291,5.36462513 5.80618743,2.5 9.51433369,2.5 L11.4856663,2.5 C15.1934736,2.5 18.2320659,5.37128489 18.5080746,9.00077022 C19.1211423,8.99659794 19.7824476,9.31619139 20.1059359,9.81755798 L20.3168473,10.1444445 C20.7152444,10.7619104 20.4430955,11.2440242 19.7172724,11.2341191 L18.8567052,11.2223752 L19.1218807,16.7184435 C19.1377224,16.7887961 19.1460799,16.8619669 19.1460799,16.9370932 L19.1460799,17.5029068 C19.1460799,18.0535862 18.6929872,18.5 18.1413108,18.5 L17.6805404,18.5 C17.1256218,18.5 16.6757713,18.054082 16.6757713,17.5029068 L16.6757713,17.22 L4.32422867,17.22 L4.32422867,17.5029068 C4.32422867,18.0535862 3.87113601,18.5 3.31945963,18.5 L2.85868919,18.5 C2.30377057,18.5 1.85392014,18.054082 1.85392014,17.5029068 L1.85392014,16.9370932 C1.85392014,16.8623612 1.86226469,16.7895494 1.87806774,16.7195131 L2.14329483,11.2223752 L1.28272761,11.2341191 C0.556904548,11.2440242 0.284755646,10.7619104 0.683152674,10.1444445 L0.894064135,9.81755798 C1.21753895,9.31621222 1.87880277,8.9966245 2.49184898,9.0007697 Z M16.9845599,14.66 C17.4961775,14.66 17.9109256,14.2301934 17.9109256,13.7 C17.9109256,13.1698066 17.4961775,12.74 16.9845599,12.74 C16.4729422,12.74 16.0581942,13.1698066 16.0581942,13.7 C16.0581942,14.2301934 16.4729422,14.66 16.9845599,14.66 Z M4.01544011,14.66 C4.52705776,14.66 4.94180581,14.2301934 4.94180581,13.7 C4.94180581,13.1698066 4.52705776,12.74 4.01544011,12.74 C3.50382246,12.74 3.08907441,13.1698066 3.08907441,13.7 C3.08907441,14.2301934 3.50382246,14.66 4.01544011,14.66 Z"></path>
            </g>
        </g>
    </g>
</svg>