<?xml version="1.0" encoding="UTF-8"?>
<svg width="50px" height="51px" viewBox="0 0 50 51" version="1.1" xmlns="http://www.w3.org/2000/svg" xmlns:xlink="http://www.w3.org/1999/xlink">
    <!-- Generator: Sketch 43.1 (39012) - http://www.bohemiancoding.com/sketch -->
    <title>订单中心</title>
    <desc>Created with Sketch.</desc>
    <defs></defs>
    <g id="首页" stroke="none" stroke-width="1" fill="none" fill-rule="evenodd">
        <g id="01-首页" transform="translate(-12.000000, -341.000000)">
            <g id="List" transform="translate(12.000000, 115.000000)">
                <g id="item4" transform="translate(0.000000, 226.500000)">
                    <g id="订单中心">
                        <rect id="Rectangle-3-Copy" fill="#B29FFF" x="0" y="0" width="50" height="50"></rect>
                        <path d="M19,13 C19,14.1122704 19.8992496,15 21.0085302,15 L28.9914698,15 C30.0980496,15 31,14.1045695 31,13 L34.008845,13 C35.1085295,13 36,13.8897632 36,15.0035949 L36,35.9964051 C36,37.10296 35.1103261,38 34.008845,38 L15.991155,38 C14.8914705,38 14,37.1102368 14,35.9964051 L14,15.0035949 C14,13.89704 14.8896739,13 15.991155,13 L19,13 Z M18,20.5 C18,20.7680664 18.2230819,21 18.4982674,21 L31.5017326,21 C31.7800934,21 32,20.7761424 32,20.5 C32,20.2319336 31.7769181,20 31.5017326,20 L18.4982674,20 C18.2199066,20 18,20.2238576 18,20.5 Z M18,25.5 C18,25.7680664 18.2230819,26 18.4982674,26 L31.5017326,26 C31.7800934,26 32,25.7761424 32,25.5 C32,25.2319336 31.7769181,25 31.5017326,25 L18.4982674,25 C18.2199066,25 18,25.2238576 18,25.5 Z M18,30.5 C18,30.7680664 18.2240528,31 18.5004358,31 L25.4995642,31 C25.7692032,31 26,30.7761424 26,30.5 C26,30.2319336 25.7759472,30 25.4995642,30 L18.5004358,30 C18.2307968,30 18,30.2238576 18,30.5 Z" id="Combined-Shape" fill="#FFFFFF"></path>
                        <rect id="Rectangle-12" fill-opacity="0.5" fill="#FFFFFF" x="20" y="12" width="10" height="2" rx="1"></rect>
                    </g>
                </g>
            </g>
        </g>
    </g>
</svg>