<?xml version="1.0" encoding="UTF-8"?>
<svg width="50px" height="50px" viewBox="0 0 50 50" version="1.1" xmlns="http://www.w3.org/2000/svg" xmlns:xlink="http://www.w3.org/1999/xlink">
    <!-- Generator: Sketch 43.1 (39012) - http://www.bohemiancoding.com/sketch -->
    <title>Group</title>
    <desc>Created with Sketch.</desc>
    <defs></defs>
    <g id="首页" stroke="none" stroke-width="1" fill="none" fill-rule="evenodd">
        <g id="01-首页" transform="translate(-12.000000, -267.000000)">
            <g id="List" transform="translate(12.000000, 115.000000)">
                <g id="item3" transform="translate(0.000000, 152.000000)">
                    <g id="Group">
                        <rect id="Rectangle-3-Copy-2" fill="#FFC84F" x="0" y="0" width="50" height="50"></rect>
                        <g id="车商城" transform="translate(9.500000, 12.500000)" fill="#FFFFFF">
                            <path d="M30.9406015,11.4577861 C31.1360105,12.0328524 30.8336221,12.4986439 30.2632895,12.4986796 L29.0168839,12.4986796 C29.1795478,12.9658272 29.278987,13.2502198 29.278987,13.2502198 C29.3796652,13.4189854 29.4510319,14.1988257 29.4510319,14.4082392 L29.4510319,23.8951191 C29.4510319,24.5061582 28.9596418,25 28.3550418,25 L24.3449782,25 C23.7404136,25 23.2506519,24.5061582 23.2506519,23.8951191 L23.2506519,21.8745718 L7.74933014,21.8745718 L7.74933014,23.8951191 C7.74933014,24.5061582 7.25956842,25 6.65496843,25 L2.64324103,25 C2.03860565,25 1.54887931,24.5061582 1.54887931,23.8951191 L1.54887931,14.4096667 C1.54887931,14.2001818 1.62006912,13.4220902 1.72092427,13.2516473 C1.72092427,13.2516473 1.8170004,12.9688963 1.97824831,12.5000714 L0.738144006,12.5000714 C0.167740614,12.5000714 -0.136099278,12.0342799 0.0591682119,11.4577147 L0.414161409,10.4169998 C0.609570492,9.8402919 1.22953417,9.37464315 1.79997295,9.37464315 L3.05558258,9.37464315 C4.02901718,6.57582568 5.22423409,3.19890855 5.50637365,2.65192828 C6.11083204,1.48934091 7.63304052,0.96737746 8.72740224,0.598584216 C8.72740224,0.598584216 10.2900024,-3.55271368e-15 15.4982919,-3.55271368e-15 C20.7067583,-3.55271368e-15 22.2676592,0.598584216 22.2676592,0.598584216 C23.2039237,0.859494571 24.9029207,1.40026522 25.4361893,2.59729091 C25.7788279,3.36603249 26.9552472,6.65251783 27.9163626,9.37467882 L29.1983099,9.37467882 C29.7717223,9.37467882 30.3918276,9.84032758 30.5870951,10.4168927 L30.9406015,11.4577861 Z M5.41472256,9.79500462 L5.41472256,9.7950403 L5.41489954,9.79504033 C5.41489954,9.79504033 8.76450165,10.9342525 15.496805,10.9358941 C22.2303474,10.9358941 25.5569394,9.79504033 25.5569394,9.79504033 C24.7865603,6.64620117 23.8224005,4.43975833 23.5806526,3.70834572 C23.5619613,3.69118007 23.3775262,2.31293396 15.4998141,2.31293396 C7.62210188,2.31293396 7.47019963,3.52087996 7.31528836,3.91154957 C7.11835708,4.44914405 6.23023692,6.3774039 5.41472256,9.79500462 Z M7.72596605,17.2709371 C8.97690283,17.2709371 9.34740131,16.9616347 9.34736588,16.298956 C9.34736588,15.5801767 8.27456291,15.2190919 7.31659816,14.7877744 C6.43782366,14.3908952 5.10302379,13.815829 4.42886243,13.815829 C3.73905417,13.815829 3.09891239,13.8565126 3.09891239,14.967603 L3.09891239,16.1192701 C3.09891239,17.0694105 4.58232228,17.2709371 6.06732518,17.2709371 L7.72596605,17.2709371 Z M21.6521914,16.2958154 C21.6521914,16.9616347 22.0227253,17.2709371 23.2721045,17.2694738 L24.9322321,17.2694738 C26.415819,17.2694738 27.9007865,17.0709094 27.9007865,16.1193057 L27.8976359,16.1193057 L27.8976359,14.9659971 C27.8976359,13.8550493 27.2589809,13.8143657 26.5691727,13.8143657 C25.8980203,13.8143657 24.5618752,14.3909308 23.6813307,14.7862755 C22.723366,15.2191276 21.6521914,15.5755016 21.6521914,16.2958154 Z" id="Combined-Shape"></path>
                            <path d="M7.72596605,17.2709371 L6.06732518,17.2709371 C4.58232228,17.2709371 3.09891239,17.0694105 3.09891239,16.1192701 L3.09891239,14.967603 C3.09891239,13.8565126 3.73905417,13.815829 4.42886243,13.815829 C5.10302379,13.815829 6.43782366,14.3908952 7.31659816,14.7877744 C8.27456291,15.2190919 9.34736588,15.5801767 9.34736588,16.298956 C9.34740131,16.9616347 8.97690283,17.2709371 7.72596605,17.2709371 L7.72596605,17.2709371 L7.72596605,17.2709371 L7.72596605,17.2709371 Z" id="Shape" fill-opacity="0.400000006"></path>
                            <path d="M21.6521914,16.2958154 C21.6521914,15.5755016 22.723366,15.2191276 23.6813307,14.7862755 C24.5618752,14.3909308 25.8980203,13.8143657 26.5691727,13.8143657 C27.2589809,13.8143657 27.8976359,13.8550493 27.8976359,14.9659971 L27.8976359,16.1193057 L27.9007865,16.1193057 C27.9007865,17.0709094 26.415819,17.2694738 24.9322321,17.2694738 L23.2721045,17.2694738 C22.0227253,17.2709371 21.6521914,16.9616347 21.6521914,16.2958154 L21.6521914,16.2958154 L21.6521914,16.2958154 L21.6521914,16.2958154 Z" id="Shape" fill-opacity="0.400000006"></path>
                        </g>
                    </g>
                </g>
            </g>
        </g>
    </g>
</svg>