<?xml version="1.0" encoding="UTF-8"?>
<svg width="32px" height="32px" viewBox="0 0 32 32" version="1.1" xmlns="http://www.w3.org/2000/svg" xmlns:xlink="http://www.w3.org/1999/xlink">
    <!-- Generator: Sketch 43.1 (39012) - http://www.bohemiancoding.com/sketch -->
    <title>试驾icon</title>
    <desc>Created with Sketch.</desc>
    <defs></defs>
    <g id="车讯录" stroke="none" stroke-width="1" fill="none" fill-rule="evenodd">
        <g id="04-应用号" transform="translate(-12.000000, -76.000000)">
            <g id="车友" transform="translate(0.000000, 64.000000)">
                <g id="试驾icon" transform="translate(12.000000, 12.000000)">
                    <rect id="Rectangle-3" fill="#5AAAFF" x="0" y="0" width="32" height="32"></rect>
                    <g id="2" transform="translate(6.080000, 6.080000)" fill="#FFFFFF">
                        <path d="M9.96940259,19.84 C4.51715343,19.84 0.0986571144,15.3982208 0.0986571144,9.9200992 C0.0986571144,4.4405888 4.51715343,0 9.96940259,0 C15.4203686,0 19.8399506,4.4405888 19.8399506,9.9200992 C19.8399506,15.3982208 15.4203686,19.84 9.96940259,19.84 Z M17.4061354,6.88659296 C17.0445736,6.85048416 16.5036622,6.46112416 16.0418146,5.86265056 C15.494586,5.15098976 15.2544331,4.40946976 15.4586568,4.10958816 C14.0188256,2.77693536 12.0925688,1.95585696 9.96820824,1.95585696 C7.86970874,1.95585696 5.96812864,2.75719456 4.5345159,4.05602016 C4.80684704,4.31483296 4.57281401,5.10744096 3.99103809,5.86265056 C3.48714157,6.51836256 2.88542695,6.92518176 2.53018237,6.88778336 C2.14137759,7.82224736 1.92353242,8.84499936 1.92353242,9.91874016 C1.92353242,14.3170698 5.5249366,17.8790442 9.96939272,17.8790442 C14.4112825,17.8790442 18.0151543,14.3170698 18.0151543,9.91874016 C18.0139698,8.84499936 17.7973091,7.82224736 17.4061354,6.88659296 Z" id="Combined-Shape"></path>
                        <path d="M14.9548864,11.6114592 C12.5643145,11.6114592 11.6395336,14.082432 11.6395336,14.082432 L11.6592749,17.1904672 L10.0399953,17.2215168 L10.0399953,17.226576 L9.87782053,17.224096 L9.71811346,17.226576 L9.71811346,17.2215168 L8.06537237,17.1904672 L8.08146152,14.082432 C8.08146152,14.082432 7.32379067,11.6114592 4.93440321,11.6114592 C3.4401847,11.6114592 2.84705754,11.5990592 2.84705754,11.5990592 C2.84705754,11.5990592 2.42123784,10.9022784 2.48687764,9.3358112 C5.93716222,9.188896 5.21423605,6.9369568 9.71683028,6.8300192 L9.71683028,6.82 C9.77250072,6.82 9.82076819,6.8250592 9.87772182,6.8250592 C9.93349097,6.8250592 9.98057396,6.82 10.0387121,6.82 L10.0387121,6.8300192 C14.5475248,6.9357664 13.9496597,9.1889952 17.4012275,9.3358112 C17.4679531,10.9022784 17.0396657,11.5990592 17.0396657,11.5990592 C17.0396657,11.5990592 16.4491049,11.6114592 14.9548864,11.6114592 Z M9.92982896,7.52425056 C8.30916747,7.52425056 6.99696369,8.65780896 6.99696369,10.0562314 C6.99696369,11.4534634 8.31045065,12.588113 9.92982896,12.588113 C11.5491086,12.588113 12.8638787,11.4534634 12.8638787,10.0562314 C12.8638787,8.65780896 11.5503917,7.52425056 9.92982896,7.52425056 Z" id="Combined-Shape"></path>
                        <path d="M9.91949931,8.06 C8.54936169,8.06 7.44,8.96212569 7.44,10.0750395 C7.44,11.1870059 8.55044652,12.09 9.91949931,12.09 C11.2884687,12.09 12.4,11.1870059 12.4,10.0750395 C12.4,8.96212569 11.2895535,8.06 9.91949931,8.06" id="Fill-1" fill-opacity="0.5"></path>
                    </g>
                </g>
            </g>
        </g>
    </g>
</svg>
