<?xml version="1.0" encoding="UTF-8"?>
<svg width="18px" height="18px" viewBox="0 0 18 18" version="1.1" xmlns="http://www.w3.org/2000/svg" xmlns:xlink="http://www.w3.org/1999/xlink">
    <!-- Generator: Sketch 43.1 (39012) - http://www.bohemiancoding.com/sketch -->
    <title>Shape</title>
    <desc>Created with Sketch.</desc>
    <defs></defs>
    <g id="首页" stroke="none" stroke-width="1" fill="none" fill-rule="evenodd">
        <g id="01-首页-无网络" transform="translate(-20.000000, -117.000000)" fill-rule="nonzero" fill="#FD8A8A">
            <path d="M29,117 C24.0295452,117 20,121.02934 20,126 C20,130.97066 24.0295452,135 29,135 C33.9704548,135 38,130.97066 38,126 C38,121.02934 33.9704292,117 29,117 Z M28.9989096,130.499949 C28.3776188,130.499949 27.8749775,129.996923 27.8749776,129.37576 C27.8749776,128.754649 28.3776188,128.249968 28.9989096,128.249968 C29.6201876,128.249968 30.124984,128.754623 30.124984,129.37576 C30.124984,129.996897 29.6201619,130.499949 28.9989096,130.499949 Z M29.8310603,126.527118 C29.8310603,127.064152 29.5438716,127.499996 28.9843879,127.499996 C28.4259946,127.499996 28.1689012,127.064139 28.1689012,126.527118 L27.8749776,122.472326 C27.8749776,121.935305 28.4322548,121.5 28.9917385,121.5 C29.5512222,121.5 30.1249968,121.935292 30.1249968,122.472326 L29.8310603,126.527118 Z" id="Shape"></path>
        </g>
    </g>
</svg>