<?xml version="1.0" encoding="UTF-8"?>
<svg width="24px" height="24px" viewBox="0 0 24 24" version="1.1" xmlns="http://www.w3.org/2000/svg" xmlns:xlink="http://www.w3.org/1999/xlink">
    <!-- Generator: Sketch 39 (31667) - http://www.bohemiancoding.com/sketch -->
    <title>Artboard</title>
    <desc>Created with Sketch.</desc>
    <defs></defs>
    <g id="发现" stroke="none" stroke-width="1" fill="none" fill-rule="evenodd">
        <g id="Artboard" fill="#5BAFFF">
            <g id="bibi" transform="translate(1.000000, 0.000000)">
                <path d="M18.1590909,14.3427865 C20.1366824,12.5979852 21.3636364,10.1665857 21.3636364,7.47727273 C21.3636364,4.78795977 20.1366824,2.35656022 18.1590909,0.611758924 L18.1590909,2.10566234 C19.4951726,3.5733215 20.2954545,5.44222339 20.2954545,7.47727273 C20.2954545,9.51232206 19.4951726,11.381224 18.1590909,12.8488831 L18.1590909,14.3427865 Z M3.20454545,0.611758924 C1.22695398,2.35656022 0,4.78795977 0,7.47727273 C0,10.1665857 1.22695398,12.5979852 3.20454545,14.3427865 L3.20454545,12.8488831 C1.86846377,11.381224 1.06818182,9.51232206 1.06818182,7.47727273 C1.06818182,5.44222339 1.86846377,3.5733215 3.20454545,2.10566234 L3.20454545,0.611758924 Z" id="Combined-Shape" fill-opacity="0.25"></path>
                <path d="M14.9545455,12.7375897 C16.8916762,11.5794247 18.1590909,9.65521468 18.1590909,7.47727273 C18.1590909,5.29933077 16.8916762,3.37512074 14.9545455,2.21695577 L14.9545455,3.49632554 C16.2657373,4.47428258 17.0909091,5.89547382 17.0909091,7.47727273 C17.0909091,9.05907164 16.2657373,10.4802629 14.9545455,11.4582199 L14.9545455,12.7375897 Z M6.40909091,2.21695577 C4.47196017,3.37512074 3.20454545,5.29933077 3.20454545,7.47727273 C3.20454545,9.65521468 4.47196017,11.5794247 6.40909091,12.7375897 L6.40909091,11.4582199 C5.09789909,10.4802629 4.27272727,9.05907164 4.27272727,7.47727273 C4.27272727,5.89547382 5.09789909,4.47428258 6.40909091,3.49632554 L6.40909091,2.21695577 Z" id="Combined-Shape" fill-opacity="0.600000024"></path>
                <path d="M10.6818182,11.2159091 C12.74661,11.2159091 14.4204545,9.54206458 14.4204545,7.47727273 C14.4204545,5.41248088 12.74661,3.73863636 10.6818182,3.73863636 C8.61702633,3.73863636 6.94318182,5.41248088 6.94318182,7.47727273 C6.94318182,9.54206458 8.61702633,11.2159091 10.6818182,11.2159091 Z M10.6818182,10.1477273 C12.1566695,10.1477273 13.3522727,8.95212405 13.3522727,7.47727273 C13.3522727,6.00242141 12.1566695,4.80681818 10.6818182,4.80681818 C9.20696686,4.80681818 8.01136364,6.00242141 8.01136364,7.47727273 C8.01136364,8.95212405 9.20696686,10.1477273 10.6818182,10.1477273 Z" id="Combined-Shape"></path>
                <path d="M8.52959281,23.4999986 L16.3499452,23.4999986 C18.0494673,23.5011332 18.0494673,22.8265738 18.5134771,22.3192341 C19.4414969,19.591781 19.7276142,17.4866727 19.4414969,15.9551768 C19.1553795,14.4236809 18.5134771,13.7686723 17.5854574,13.3200992 C16.6574377,12.9409175 15.6913525,12.9065533 13.1620813,12.6941307 C12.7060701,12.6557139 12.3555189,12.2896239 12.3555189,11.85009 L12.3555189,7.90009806 C12.3555189,7.13641451 11.6349741,6.40909091 10.7500533,6.40909091 C9.86513238,6.40909091 9.1445876,7.07276728 9.1445876,7.90009806 L9.14812258,15.3803445 C9.14812258,15.7916307 8.96258667,16.1229462 8.77698201,16.1229462 C8.59137735,16.1229462 8.50956136,16.0577238 8.36227093,15.6712956 L7.29353159,13.7686725 C6.88818832,13.1732114 5.98323594,12.958529 5.32219652,13.3200993 C4.98283937,13.5054041 4.74128309,13.8036996 4.64171476,14.1601853 C4.54332474,14.5115865 4.59576015,14.8782414 4.78782686,15.1929205 C4.81905243,15.2437663 4.84438637,15.2980019 4.86382872,15.3539323 L7.45378354,22.8265739 C7.62640792,23.1406881 7.95103603,23.4999986 8.52959281,23.4999986 Z" id="Path"></path>
            </g>
        </g>
    </g>
</svg>