<?xml version="1.0" encoding="UTF-8"?>
<svg width="22px" height="22px" viewBox="0 0 22 22" version="1.1" xmlns="http://www.w3.org/2000/svg" xmlns:xlink="http://www.w3.org/1999/xlink">
    <!-- Generator: Sketch 39 (31667) - http://www.bohemiancoding.com/sketch -->
    <title>Artboard</title>
    <desc>Created with Sketch.</desc>
    <defs></defs>
    <g id="发现" stroke="none" stroke-width="1" fill="none" fill-rule="evenodd">
        <g id="Artboard">
            <g id="independent-travel" transform="translate(0.000000, 1.000000)">
                <path d="M18.4433024,10.8560157 C18.542356,10.8004747 18.6351272,10.7227929 18.715232,10.677111 C18.7143569,10.6520702 18.7021518,10.6393611 18.7088404,10.6157673 C18.7088404,10.5268662 18.8718194,10.4987582 18.9460968,10.4738589 C18.9471907,10.4716411 18.9481908,10.4695334 18.9492848,10.467347 C19.0124041,10.467347 19.1699291,10.1543683 19.2025749,10.1188047 C19.212217,10.083713 19.3673041,10.0861667 19.4013877,9.98325088 C19.5201877,9.92351155 19.4115455,9.79421791 19.5648667,9.78319177 C19.5843854,9.70566278 19.564226,9.65812928 19.5585063,9.576668 C19.5285484,9.48109767 19.6336589,9.51103024 19.6418476,9.44109843 C19.6068108,9.43321813 19.5296423,9.4038046 19.5296423,9.36042361 C19.5405191,9.33736467 19.6050137,9.33999143 19.6418476,9.34107674 C19.7074987,9.28451469 19.695153,9.16849647 19.7700867,9.11841484 C19.776619,8.92684947 19.796716,8.90699929 19.879104,8.76347076 C20.155304,8.76347076 19.9656333,8.53314877 19.9656333,8.36654558 L19.9688213,8.36654558 C20.0005139,8.33859488 20.0354725,8.37398547 20.0714626,8.33106061 C20.0961228,8.30609846 20.0682746,8.24075955 20.0682746,8.2148379 C20.0434582,8.17323431 19.9691808,8.25683475 19.9432079,8.25683475 C19.9432079,8.19332042 20.079792,8.15344702 20.1003109,8.07607532 C20.1039521,8.07248907 20.1017018,8.07615397 20.1034989,8.0696421 C19.999123,8.02854182 19.7757282,7.91917702 19.6995599,8.06320888 C19.6707741,8.06320888 19.6168749,8.06657492 19.5905426,8.05672847 L19.5905426,8.04708649 L19.5937306,8.04708649 C19.6623509,7.96941593 19.9688057,7.84545448 19.9688057,7.70497741 L19.9720718,7.70497741 C19.9298776,7.58095302 19.8452236,7.53861015 19.7700711,7.49524487 C19.7749312,7.45420751 20.0216109,7.44756981 19.8983726,7.38550258 L19.8983726,7.37902217 C19.796544,7.30229535 19.6860109,7.25746728 19.5969342,7.17899453 C19.5941838,7.17065808 19.5905426,7.17015474 19.5905426,7.16284069 C19.4629599,7.09866575 19.4487545,6.55615153 19.0936045,6.50776865 C19.0936045,6.49930638 19.0582864,6.48886221 19.0582864,6.47220504 C19.0550827,6.47008161 19.0518947,6.46789525 19.0486442,6.46578755 C19.0449249,6.46031379 19.0486442,6.45848922 19.0422526,6.45285818 C19.0422526,6.44790348 19.0724292,6.25473376 19.0839623,6.22376306 L19.0871503,6.22376306 C19.0871503,6.21215494 19.1107165,6.17769236 19.1223903,6.16894696 C19.1223903,6.1667606 19.2039969,6.04789539 19.2121076,6.02044802 C19.2454723,6.04432488 19.4873856,5.79662217 19.4654759,5.75901377 C19.4703517,5.76179783 19.7223916,5.65191396 19.7347998,5.63322773 C19.7839639,5.63322773 19.7700398,5.49998607 19.7700398,5.48150431 C19.7184066,5.45561412 19.6740089,5.4320204 19.6033727,5.45246829 C19.486151,5.48633316 19.3966525,5.37828961 19.2955427,5.40735708 C19.0594428,5.40735708 19.0589896,5.69778018 18.9364233,5.69778018 C18.9319851,5.69866101 18.937736,5.70076871 18.9332353,5.70106757 L18.9332353,5.69778018 C18.9006676,5.69310862 18.8154354,5.60411306 18.8018082,5.57512423 L18.7985421,5.57512423 C18.7985421,5.51555794 18.7792421,5.46283381 18.7569105,5.41058156 C18.6748037,5.37692117 18.5134812,5.46138673 18.4907901,5.44927528 C18.4907901,5.39065273 18.4600196,5.36436932 18.4458924,5.30727249 C18.3476737,5.25786721 18.3879301,5.11762608 18.4523309,5.06205498 C18.5018075,5.04956604 18.7031676,5.01249243 18.7280465,4.97496267 C18.7287028,4.97496267 19.2602246,4.32646541 19.2602246,4.32309937 C19.3300169,4.29521158 19.4224222,4.32412175 19.4430192,4.40690429 C19.4806658,4.549725 19.3436441,4.58483246 19.3436441,4.68770113 L19.3404561,4.68770113 C19.3393778,4.69521967 19.3382839,4.70281686 19.3372056,4.71033539 C19.2798215,4.71033539 19.4045912,4.86751682 19.4045912,4.89751231 C19.3331424,4.89751231 19.2840253,5.00695577 19.2891198,5.06850394 C19.3542551,5.06704114 19.4216408,5.06104833 19.4879326,5.05878333 C19.4879326,5.05777666 19.5646635,4.93678802 19.5680703,4.8748938 C19.692465,4.58870186 19.9074053,4.66294346 20.0778386,4.51991827 C20.0835739,4.45778812 20.1260025,4.39004266 20.1260025,4.3359501 C20.1787452,4.29164107 20.2274092,4.22987269 20.2958888,4.20686094 C20.2969671,4.20473751 20.298061,4.20255115 20.2991393,4.20044344 L20.3055309,4.20044344 C20.3626806,4.11409039 20.4559767,4.04997836 20.4818558,3.94550532 C20.511673,3.94550532 20.5216121,3.80870888 20.5620872,3.79702211 L20.5620872,3.79381337 C20.6574617,3.79381337 20.7363023,3.85191686 20.8441632,3.85191686 C20.8678076,3.86673373 20.9677609,3.80235431 20.9531805,3.72927666 C20.955884,3.68853815 20.9261293,3.62925497 20.8730428,3.59699448 C20.8732459,3.57173347 20.8728865,3.57391982 20.8890609,3.56471826 L20.8890609,3.56150952 C20.9388969,3.56150952 21.0157841,3.55531225 21.0493676,3.51311092 C21.1070173,3.48407489 21.1579317,3.31039358 21.1648234,3.25490114 C21.1696835,3.25490114 21.1971879,3.201249 21.2321309,3.19678192 C21.257885,3.19431244 21.2335999,3.31799077 21.2801542,3.3743326 C21.3009856,3.37625156 21.421239,3.41565309 21.421239,3.40340007 C21.4503843,3.39603883 21.4585262,3.37478874 21.4661368,3.34529658 C21.4743412,3.31374391 21.5142381,3.14868217 21.5142381,3.12584344 L21.5175043,3.12584344 C21.5756698,2.92433725 21.2572443,2.61939616 21.3186915,2.43199903 C21.3334126,2.3870923 21.4117375,2.35788326 21.4372728,2.31583924 C21.5065494,2.31583924 21.6298502,2.37358096 21.6809833,2.29649237 C21.7273188,2.25062616 21.7237714,2.21150775 21.7290691,2.14805635 C21.6896878,2.12243355 21.751557,1.50625971 21.7868126,1.41223083 C21.7984082,1.40529428 21.7361014,1.3293854 21.7258654,1.32513852 C21.643618,1.25891879 21.7199114,1.06444353 21.6425241,1.03786127 C21.5033302,1.03786127 21.299079,1.23337464 21.2321153,1.35098152 C21.1532747,1.42895093 21.0283799,1.57408382 20.8922333,1.53488678 L20.8922333,1.53167804 C20.8061415,1.53167804 20.6998591,1.31798176 20.6997808,1.24446365 C20.6267536,1.22758627 20.4981395,1.19180245 20.491404,1.12822521 C20.4835591,1.11880344 20.4272845,1.09602763 20.4272845,1.08951576 C20.3862311,1.07748296 20.2476935,1.10865814 20.2476935,1.07660213 C20.1920597,1.05454986 20.0589605,1.07016891 19.9879336,1.07016891 C19.9869334,1.06798256 19.9858395,1.06587486 19.9847612,1.0636885 C19.9532562,1.0636885 19.9329718,0.95199577 19.9270802,0.928197565 C19.9200479,0.923510281 19.9175162,0.923793414 19.9175162,0.915331125 C19.8575848,0.870062626 19.8116713,0.824149224 19.8116713,0.737780449 L19.8084833,0.737780449 L19.8084833,0.72807556 C19.7558968,0.685795597 19.6976688,0.62789657 19.6449261,0.579639535 L19.6449261,0.573206315 C19.6395659,0.568912265 19.6342682,0.564602475 19.6289079,0.560292686 C19.6267826,0.553780813 19.6246104,0.547379042 19.6225163,0.540945822 L19.6192502,0.540945822 C19.6192502,0.471155578 19.2635532,0.0986735011 19.2601308,0.0956063117 L19.2537391,0.0956063117 L19.2537391,0.0923189186 C19.2494728,0.0912965375 19.2451753,0.0902112125 19.240909,0.0891101785 L19.240909,0.0859014384 C19.1376895,0.0413722032 19.0728511,0.0513130354 18.955645,0.0568654252 L18.955645,0.0536566851 C18.8937758,0.0536566851 18.820733,-0.0122799317 18.7568322,0.00203360324 C18.6656615,0.00203360324 18.4259985,0.0741517721 18.3849452,0.156950037 C18.3177158,0.179442729 18.2528617,0.200614167 18.1828819,0.218278008 C18.1210596,0.266535059 18.1136053,0.277922971 18.0995249,0.369844136 C18.1031036,0.369844136 18.1059947,0.3995565 18.1059947,0.405392022 C18.1775842,0.441458984 18.2853669,0.538114622 18.2470796,0.628053923 C18.2434384,0.628053923 18.0963369,0.845478014 18.0963369,0.973387488 L18.0931645,0.973387488 C18.0931645,1.07215085 18.035421,1.19815709 18.035421,1.2831417 C18.0257789,1.29174554 18.0161992,1.30036512 18.0065414,1.3089847 C17.895852,1.43629648 17.7294663,1.42192003 17.5737385,1.42192003 C17.5506879,1.42958013 17.5293408,1.45045272 17.5159949,1.47030291 C17.5138852,1.47140394 17.511713,1.47250497 17.5096189,1.47351165 C17.4777076,1.63449953 17.4326536,1.73422236 17.4326536,1.88979942 C17.4540476,1.96271978 17.3818018,2.0220816 17.3396545,2.07055885 C17.3406078,2.11639361 17.3654086,2.13421475 17.3813642,2.16413159 C17.4944603,2.16852003 17.5549542,2.1060281 17.6282784,2.1060281 L17.6282784,2.10281936 C17.6767392,2.08830134 17.8136046,2.15137525 17.8879601,2.15444244 C17.9193557,2.11502519 17.9237002,2.08098729 17.9552677,2.04471587 C18.0267009,2.04471587 18.0461415,1.98192508 18.0995249,1.98340362 C18.2226851,2.05261191 18.3773971,2.13080153 18.4170128,2.25775152 C18.4170128,2.2870392 18.4270144,2.3331728 18.4265924,2.37391131 C18.3808196,2.38668339 18.067473,2.3926762 18.067473,2.40939628 C18.0317798,2.40939628 17.9199965,2.49897381 17.8911482,2.53524524 L17.8814904,2.53524524 L17.8814904,2.53845398 C17.8189649,2.55423032 17.7444687,2.57109197 17.7019619,2.62233756 C17.6846936,2.62233756 17.6283409,2.78557471 17.5673468,2.83216446 C17.5238868,2.91953991 17.3565009,2.92312616 17.2627048,2.94189104 C17.2437799,3.01386764 17.0883334,3.20645539 17.0094928,3.20645539 C17.0094928,3.27523898 16.7298078,3.09709059 16.7272606,3.09672882 L16.7272606,3.09352008 C16.4986149,3.09235613 16.6456382,3.47416559 16.6695795,3.56147812 C16.6994124,3.59535871 16.4529983,3.77896511 16.3906291,3.83576309 C16.3375425,3.88416169 16.1921132,4.02220075 16.1694065,4.09070121 C16.0143975,4.12142024 15.8428547,4.01147345 15.7141781,4.04870436 L15.7141781,4.0519131 L15.7077396,4.0519131 C15.7077396,4.17025924 14.9050029,4.3427766 14.8644653,4.46499212 C14.8361014,4.46522806 14.817239,4.46186201 14.8003301,4.43914912 C14.720333,4.37884354 14.6876872,4.30365819 14.5502436,4.30365819 L14.5502436,4.30044945 C14.5225986,4.26111083 14.3862488,4.16012966 14.3226294,4.23270398 C14.1827166,4.2120516 14.0834196,4.01784374 13.8930144,3.99390397 L13.8930144,3.99069523 C13.7079851,3.99069523 13.5291911,4.00033721 13.341552,4.00033721 C13.3404581,3.99819805 13.3393798,3.99601169 13.338364,3.99390399 C13.2735256,3.99390399 13.1210639,3.9333153 13.0434422,3.9099575 C12.9416761,3.9099575 12.8447701,3.87124805 12.758022,3.87124805 L12.7516304,3.86154316 L12.7291424,3.84219629 L12.7291424,3.83576307 C12.7089205,3.83576307 12.7131242,3.70025642 12.7131242,3.69696902 L12.7099362,3.69696902 C12.7088579,3.69275361 12.7078422,3.6884281 12.7067482,3.68413403 C12.635315,3.64813 12.6076857,3.52701553 12.6041226,3.45496027 L12.6009346,3.45496027 C12.63133,3.25856607 11.8468151,2.9745762 11.79937,2.97734453 C11.7217796,2.95969641 11.608621,2.94640529 11.549346,2.90311866 C11.452737,2.79512229 11.4741466,2.71504517 11.5749595,2.60948682 L11.5749595,2.60297495 C11.6866647,2.51865095 11.6073709,2.3626964 11.5878053,2.26415326 C11.5345624,2.22393381 11.5236857,2.07280811 11.5236857,1.99951025 C11.5154031,1.97220445 11.4068391,1.90963386 11.3697707,1.89948857 C11.326967,1.90688127 11.0830221,1.71481258 11.1004468,1.66391304 C11.1004468,1.64097994 11.0762867,1.58754801 11.0747708,1.54775325 L11.0715828,1.54775325 C11.0715828,1.47656311 10.9808341,1.4384671 10.9209339,1.45737354 C10.7940701,1.45737354 10.8176363,1.56176792 10.7574393,1.61228997 L10.7574393,1.61557737 C10.6497191,1.65164431 10.4488904,1.6379914 10.4142911,1.77684837 L10.4111031,1.77684837 C10.3990543,1.80415417 10.4057273,2.00602212 10.4047115,2.00602212 C10.3876619,2.06244261 10.3740816,2.07623707 10.3117905,2.08018509 L10.3117905,2.08347248 C10.2936001,2.08611497 9.88209739,2.02346575 9.88209739,1.93498927 C9.84735751,1.93162323 9.80297548,1.91905564 9.77947175,1.95439904 L9.77628375,1.95439904 C9.76962645,1.98132735 9.67328305,2.16078125 9.64485667,2.20612841 C9.45227927,2.30300426 9.55687397,2.47325661 9.50695981,2.53202073 C9.50595966,2.53522949 9.50486573,2.53845396 9.50377181,2.54166271 C9.31496062,2.54166271 9.15445081,2.42163355 8.95237191,2.4836064 C8.90159823,2.4836064 8.88136066,2.51580398 8.91066217,2.55778509 C8.945824,2.58443028 8.93988556,2.64173158 8.92668034,2.68363405 L8.92349234,2.68363405 C8.94938707,2.81775654 8.94322985,2.95260257 8.91385019,3.08379943 C8.91144356,3.09001245 8.66309169,3.39610176 8.65410589,3.40333718 C8.66295104,3.45598264 8.65677819,3.49854573 8.56756092,3.54533997 C8.56756092,3.56095901 8.29572096,3.58920857 8.2726548,3.59696305 L8.2726548,3.60015606 C7.99557963,3.60015606 7.88329621,3.61214167 7.66655872,3.79378194 C7.51714441,3.78692402 7.60534589,3.65119716 7.49350004,3.63243228 C7.3327558,3.57912618 7.05727465,3.81962493 6.9676198,3.81962493 C6.95253928,3.88554583 6.83250464,3.95336993 6.8458505,3.98095886 C6.89321738,3.98095886 6.92020604,4.10742126 6.82017456,4.12939489 C6.77069797,4.23942032 6.822128,4.26336009 6.86833845,4.29722495 C6.93187977,4.29569922 7.0574153,4.22013637 7.0574153,4.33601304 L7.0606033,4.33601304 C7.0606033,4.44191744 7.08454459,4.54596578 7.03492735,4.64576726 C6.94492872,4.66840151 6.86824468,4.75453435 6.92917621,4.8457949 C6.93236423,4.84799698 6.93556786,4.85010469 6.93875586,4.85230677 C6.97349575,4.89420924 7.12762956,5.021521 7.17607473,5.04591692 C7.1930886,5.07390305 7.18390315,5.13586338 7.17203726,5.19625686 C7.85575713,5.109182 8.63558225,5.06857995 9.51741227,5.06857995 C12.4447977,5.06857995 14.2744136,5.67546377 15.2502088,6.76785465 C15.9820552,7.61749199 16.8358759,9.55952022 16.9578503,9.92365051 C16.9578503,10.166404 16.9578503,10.4091576 17.0798247,10.6519111 L17.3237735,10.6519111 C17.8006237,10.6519111 18.1671655,10.7287486 18.4433024,10.8560157 Z" id="Combined-Shape" fill="#F5A623"></path>
                <path d="M16.3602517,10.8170511 L16.13843,10.8170511 C16.0275191,10.5963163 16.0275191,10.3755814 16.0275191,10.1548466 C15.9166083,9.82374427 15.1402323,8.05786543 14.4747672,7.28529343 C13.5874804,6.29198658 11.9238176,5.74014944 9.26195722,5.74014944 C6.48918595,5.74014944 4.82552318,6.18161915 4.04914723,7.28529343 C3.27277127,8.05786543 2.60730617,9.82374427 2.49639532,10.1548466 C2.38548447,10.3755814 2.38548447,10.5963163 2.38548447,10.8170511 L2.16366276,10.8170511 C0.832732553,10.8170511 0.5,11.5896231 0.5,12.2518277 C0.5,12.4725625 0.721821702,12.6932974 0.943643404,12.8036648 L1.94184106,12.9140323 C1.60910851,14.128074 1.49819766,15.5628505 1.49819766,16.8872597 L1.49819766,18.5427711 C1.49819766,18.8738734 1.72001936,19.2049757 2.05275191,19.2049757 L3.16186042,19.2049757 C3.49459297,19.2049757 3.71641468,18.9842408 3.71641468,18.6531385 L3.71641468,17.990934 L14.8074998,17.990934 L14.8074998,18.5427711 C14.8074998,18.8738734 15.0293215,19.0946082 15.362054,19.0946082 L16.4711625,19.0946082 C16.8038951,19.0946082 17.0257168,18.8738734 17.0257168,18.5427711 L17.0257168,16.8872597 C17.0257168,15.5628505 16.9148059,14.128074 16.5820734,12.9140323 L17.580271,12.8036648 C17.8020927,12.8036648 18.0239144,12.58293 18.0239144,12.2518277 C18.1348253,11.5896231 17.8020927,10.8170511 16.3602517,10.8170511 Z M3.38368212,15.673218 C2.94003872,15.673218 2.60730617,15.3421157 2.60730617,14.900646 C2.60730617,14.4591763 2.94003872,14.128074 3.38368212,14.128074 C3.82732553,14.128074 4.16005808,14.4591763 4.16005808,14.900646 C4.16005808,15.4524831 3.82732553,15.673218 3.38368212,15.673218 Z M15.0293215,15.673218 C14.5856781,15.673218 14.2529455,15.3421157 14.2529455,14.900646 C14.2529455,14.4591763 14.5856781,14.128074 15.0293215,14.128074 C15.4729649,14.128074 15.8056974,14.4591763 15.8056974,14.900646 C15.8056974,15.4524831 15.4729649,15.673218 15.0293215,15.673218 Z M9.26195722,13.0243997 C6.48918595,13.0243997 4.38187978,12.58293 3.16186042,12.1414603 C3.71641468,9.49264199 4.49279063,8.38896771 4.82552318,8.05786543 C5.26916659,7.50602829 6.3782751,6.95419115 9.26195722,6.95419115 C12.1456393,6.95419115 13.2547479,7.50602829 13.6983913,8.05786543 C14.0311238,8.38896771 14.8074998,9.49264199 15.362054,12.1414603 C14.1420347,12.58293 12.0347285,13.0243997 9.26195722,13.0243997 Z" id="Shape" fill="#FF5353"></path>
            </g>
        </g>
    </g>
</svg>