<?xml version="1.0" encoding="UTF-8"?>
<svg width="24px" height="24px" viewBox="0 0 24 24" version="1.1" xmlns="http://www.w3.org/2000/svg" xmlns:xlink="http://www.w3.org/1999/xlink">
    <!-- Generator: Sketch 39 (31667) - http://www.bohemiancoding.com/sketch -->
    <title>Artboard</title>
    <desc>Created with Sketch.</desc>
    <defs></defs>
    <g id="发现" stroke="none" stroke-width="1" fill="none" fill-rule="evenodd">
        <g id="Artboard" fill="#58DD59">
            <g id="live-video" transform="translate(1.000000, 3.000000)">
                <path d="M20.210961,4.91562181 C18.9363589,2.89093526 16.680395,1.54215586 14.1099389,1.54215586 L13.2138336,1.54215586 C9.58675527,1.54215586 6.58370113,4.22314845 6.08420438,7.71077931 L1.59872116e-14,7.71077931 L1.59872116e-14,9.76698713 L6.08442496,9.76698713 C6.58446327,13.2488007 9.58590944,15.9356106 13.2138336,15.9356106 L14.1099389,15.9356106 C16.6808757,15.9356106 18.9382889,14.5886199 20.2128281,12.5621446 L21.5417963,12.5621446 C20.6531532,15.4105469 17.997515,17.4777664 14.8524921,17.4777664 L7.00652589,17.4777664 C3.13692849,17.4777664 1.59872116e-14,14.3530921 1.59872116e-14,10.4695963 L1.59872116e-14,7.00817012 C1.59872116e-14,3.13766464 3.13186432,0 7.00652589,0 L14.8524921,0 C17.995179,0 20.6546086,2.06098788 21.5428654,4.91562181 L20.210961,4.91562181 Z M17.4241086,8.25944852 C17.9122861,8.52423515 17.9176674,8.9506203 17.4241086,9.21832573 L12.6377932,11.814415 C12.1496158,12.0792017 11.7538697,11.8490955 11.7538697,11.2902537 L11.7538697,6.1875206 C11.7538697,5.63324763 12.1442345,5.39565379 12.6377932,5.66335922 L17.4241086,8.25944852 Z"></path>
            </g>
        </g>
    </g>
</svg>