<?xml version="1.0" encoding="UTF-8"?>
<svg width="24px" height="24px" viewBox="0 0 24 24" version="1.1" xmlns="http://www.w3.org/2000/svg" xmlns:xlink="http://www.w3.org/1999/xlink">
    <!-- Generator: Sketch 39 (31667) - http://www.bohemiancoding.com/sketch -->
    <title>Artboard</title>
    <desc>Created with Sketch.</desc>
    <defs></defs>
    <g id="发现" stroke="none" stroke-width="1" fill="none" fill-rule="evenodd">
        <g id="Artboard" fill="#5BAFFF">
            <g id="nearby-car" transform="translate(1.000000, 0.000000)">
                <path d="M11,23.6863638 C13.6190476,23.6863638 21.4761905,16.4294468 21.4761905,10.2634389 C21.4761905,5.02437412 16.7858402,0.777272935 11,0.777272935 C5.21415976,0.777272935 0.523809524,5.02437412 0.523809524,10.2634389 C0.523809524,16.9037551 8.38095238,23.6863638 11,23.6863638 Z M11,18.987013 C16.1833781,18.987013 20.3853364,15.1261958 20.3853364,10.3636364 C20.3853364,5.60107696 16.1833781,1.74025974 11,1.74025974 C5.81662186,1.74025974 1.61466364,5.60107696 1.61466364,10.3636364 C1.61466364,15.1261958 5.81662186,18.987013 11,18.987013 Z" id="Combined-Shape"></path>
                <path d="M15.7620123,9.23192996 L15.6129931,9.23192996 C15.5384835,9.08103577 15.5384835,8.93014158 15.5384835,8.77924739 C15.463974,8.55290611 14.9424069,7.34575261 14.4953495,6.81762295 C13.8992729,6.13859911 12.7816292,5.76136364 10.9933994,5.76136364 C9.13065998,5.76136364 8.01301634,6.06315201 7.4914493,6.81762295 C6.96988227,7.34575261 6.52282481,8.55290611 6.44831523,8.77924739 C6.37380566,8.93014158 6.37380566,9.08103577 6.37380566,9.23192996 L6.2247865,9.23192996 C5.33067159,9.23192996 5.10714286,9.76005961 5.10714286,10.2127422 C5.10714286,10.3636364 5.25616201,10.5145306 5.40518116,10.5899776 L6.07576735,10.6654247 C5.85223862,11.4953428 5.77772904,12.476155 5.77772904,13.3815201 L5.77772904,14.5132265 C5.77772904,14.7395678 5.9267482,14.9659091 6.15027693,14.9659091 L6.89537269,14.9659091 C7.11890142,14.9659091 7.26792057,14.8150149 7.26792057,14.5886736 L7.26792057,14.1359911 L14.7188782,14.1359911 L14.7188782,14.5132265 C14.7188782,14.7395678 14.8678974,14.890462 15.0914261,14.890462 L15.8365219,14.890462 C16.0600506,14.890462 16.2090697,14.7395678 16.2090697,14.5132265 L16.2090697,13.3815201 C16.2090697,12.476155 16.1345602,11.4953428 15.9110314,10.6654247 L16.5816176,10.5899776 C16.7306368,10.5899776 16.8796559,10.4390835 16.8796559,10.2127422 C16.9541655,9.76005961 16.7306368,9.23192996 15.7620123,9.23192996 L15.7620123,9.23192996 L15.7620123,9.23192996 Z M7.04439184,12.5516021 C6.74635354,12.5516021 6.52282481,12.3252608 6.52282481,12.0234724 C6.52282481,11.7216841 6.74635354,11.4953428 7.04439184,11.4953428 C7.34243015,11.4953428 7.56595888,11.7216841 7.56595888,12.0234724 C7.56595888,12.4007079 7.34243015,12.5516021 7.04439184,12.5516021 L7.04439184,12.5516021 L7.04439184,12.5516021 Z M14.8678974,12.5516021 C14.5698591,12.5516021 14.3463303,12.3252608 14.3463303,12.0234724 C14.3463303,11.7216841 14.5698591,11.4953428 14.8678974,11.4953428 C15.1659357,11.4953428 15.3894644,11.7216841 15.3894644,12.0234724 C15.3894644,12.4007079 15.1659357,12.5516021 14.8678974,12.5516021 L14.8678974,12.5516021 Z M10.9933994,10.7408718 C9.13065998,10.7408718 7.71497803,10.4390835 6.89537269,10.1372951 C7.26792057,8.32656483 7.78948761,7.57209389 8.01301634,7.34575261 C8.31105464,6.96851714 9.0561504,6.59128167 10.9933994,6.59128167 C12.9306484,6.59128167 13.6757441,6.96851714 13.9737824,7.34575261 C14.1973112,7.57209389 14.7188782,8.32656483 15.0914261,10.1372951 C14.2718207,10.4390835 12.8561388,10.7408718 10.9933994,10.7408718 L10.9933994,10.7408718 L10.9933994,10.7408718 Z" id="Shape"></path>
            </g>
        </g>
    </g>
</svg>