<?xml version="1.0" encoding="UTF-8"?>
<svg width="22px" height="22px" viewBox="0 0 22 22" version="1.1" xmlns="http://www.w3.org/2000/svg" xmlns:xlink="http://www.w3.org/1999/xlink">
    <!-- Generator: Sketch 39 (31667) - http://www.bohemiancoding.com/sketch -->
    <title>Artboard</title>
    <desc>Created with Sketch.</desc>
    <defs></defs>
    <g id="发现" stroke="none" stroke-width="1" fill="none" fill-rule="evenodd">
        <g id="Artboard" fill="#5BAFFF">
            <g id="scanning" transform="translate(1.000000, 1.500000)">
                <path d="M15.7415049,18.9984559 C10.9986447,19.0904507 10.4995242,15.0410903 10.4995242,15.0410903 L6.5055385,15.0410903 C6.5055385,15.0410903 5.56959502,14.8570316 5.60076144,13.7526102 C5.63192786,12.6482581 6.38080238,12.6787961 6.38080238,12.6787961 L15.7101977,12.6787961 C15.7101977,12.6787961 16.8333862,12.7095418 16.8646582,11.4210963 C16.8959303,10.1325817 16.6460003,8.20051942 18.2063991,8.20000007 C19.2671843,8.19965384 19.2984212,9.45773443 19.2984212,9.45773443 L19.9848924,15.6545846 C19.9848924,15.6545846 20.4842243,18.9064266 15.7415049,18.9984559 Z M3.13528995,7.57887336 C3.10412367,8.86729628 3.35405263,10.7994806 1.79362535,10.7999999 C0.732703837,10.8003808 0.70153755,9.54208061 0.70153755,9.54208061 L0.0151044984,3.34537989 C0.0151044984,3.34537989 -0.484189972,0.0935765986 4.25854404,0.00154638987 C9.00131326,-0.0905184427 9.50046687,3.95887999 9.50046687,3.95887999 L13.4944353,3.95887999 C13.4944353,3.95887999 14.4303042,4.14294041 14.3992436,5.24737216 C14.3679717,6.35173466 13.6191708,6.3210233 13.6191708,6.3210233 L4.28978076,6.32112717 C4.28971032,6.32112717 3.16645624,6.29041581 3.13528995,7.57887336 Z" id="Combined-Shape"></path>
            </g>
        </g>
    </g>
</svg>