<?xml version="1.0" encoding="UTF-8"?>
<svg width="17px" height="17px" viewBox="0 0 17 17" version="1.1" xmlns="http://www.w3.org/2000/svg" xmlns:xlink="http://www.w3.org/1999/xlink">
    <!-- Generator: Sketch 43.1 (39012) - http://www.bohemiancoding.com/sketch -->
    <title>Artboard</title>
    <desc>Created with Sketch.</desc>
    <defs></defs>
    <g id="发现" stroke="none" stroke-width="1" fill="none" fill-rule="evenodd">
        <g id="Artboard" fill="#5BAFFF">
            <path d="M8.5,15.5 C8.43263158,15.5 8.35684211,15.4835294 8.29789474,15.4505882 C8.22210526,15.4094118 6.33578947,14.38 4.43263158,12.6917647 C3.30421053,11.6952941 2.40315789,10.6741176 1.75473684,9.66117647 C0.921052632,8.36823529 0.5,7.07529412 0.5,5.82352941 C0.5,3.44352941 2.48736842,1.5 4.92105263,1.5 C5.74631579,1.5 6.62210526,1.80470588 7.38842105,2.34823529 C7.83473684,2.66941176 8.22210526,3.05647059 8.5,3.46823529 C8.77789474,3.05647059 9.16526316,2.66941176 9.61157895,2.34823529 C10.3778947,1.79647059 11.2536842,1.5 12.0789474,1.5 C14.5126316,1.5 16.5,3.43529412 16.5,5.82352941 C16.5,7.07529412 16.0789474,8.36823529 15.2536842,9.66117647 C14.6052632,10.6741176 13.7042105,11.6952941 12.5757895,12.6917647 C10.6642105,14.38 8.78631579,15.4011765 8.71052632,15.4505882 C8.64315789,15.4835294 8.56736842,15.5 8.5,15.5 L8.5,15.5 Z" id="Shape"></path>
        </g>
    </g>
</svg>