<?xml version="1.0" encoding="UTF-8"?>
<svg width="32px" height="32px" viewBox="0 0 32 32" version="1.1" xmlns="http://www.w3.org/2000/svg" xmlns:xlink="http://www.w3.org/1999/xlink">
    <!-- Generator: Sketch 39 (31667) - http://www.bohemiancoding.com/sketch -->
    <title>car-friends</title>
    <desc>Created with Sketch.</desc>
    <defs></defs>
    <g id="车讯录" stroke="none" stroke-width="1" fill="none" fill-rule="evenodd">
        <g id="01-车讯录-首页" transform="translate(-12.000000, -156.000000)">
            <g id="其他" transform="translate(0.000000, 144.000000)">
                <g id="car-friends" transform="translate(12.000000, 12.000000)">
                    <rect id="Rectangle-4" fill="#9592FF" x="0" y="0" width="32" height="32"></rect>
                    <path d="M14.4801345,16.5101295 C15.566888,16.738387 16.5587939,17.2439856 17.3859404,17.952377 C18.2733281,16.9829297 19.4890861,16.4296958 20.7842347,16.4296958 C23.3849104,16.4296958 25.5,18.6403558 25.5,21.3575126 C25.5,21.4067604 25.4970708,21.4552498 25.4940407,21.5039223 L25.4725516,21.9354096 L19.6959462,21.9354096 C19.7857405,22.3895463 19.8324052,22.8595845 19.8324052,23.3407643 C19.8324052,23.4069337 19.8287438,23.4717431 19.824956,23.5363956 L19.8041741,24 L6.52520097,24 L6.50737342,23.5243387 C6.50371197,23.4638708 6.5,23.4027491 6.5,23.3407643 C6.5,19.9655052 8.80839422,17.1435508 11.8615986,16.5079682 C11.8444433,16.5014031 11.8277359,16.4948112 11.8110186,16.4882806 L11.6827663,16.4391374 C11.6382732,16.422425 11.5938305,16.4054773 11.550802,16.3869341 C9.99917402,15.701283 8.99764964,14.1228679 8.99767483,12.3646445 C8.99767483,12.2886674 9.00209385,12.2136579 9.00729566,12.1384131 L9.01025008,12.088773 C9.14741617,9.79661732 10.9763055,8 13.1743462,8 C15.4777614,8 17.3518509,9.95851007 17.3518509,12.3646445 C17.350462,13.8063793 16.6742778,15.1462707 15.5422537,15.9612268 L15.5089217,15.9863607 C15.4154912,16.0506209 15.3183235,16.110278 15.2212568,16.1684181 C15.1996921,16.1830382 15.1811827,16.1947551 15.1618653,16.205609 C15.0744699,16.2539676 14.9869483,16.2962846 14.8994772,16.3373201 C14.8483177,16.3636571 14.8224096,16.3767341 14.7957441,16.3888695 C14.7356455,16.4147358 14.6748652,16.4372804 14.6133778,16.4596943 L14.50515,16.500416 C14.4968167,16.50366 14.4884834,16.5069102 14.4801345,16.5101295 Z" id="Shape" fill="#FFFFFF"></path>
                    <path d="M19.6159243,16.9058541 C19.6588771,16.9252865 19.7040772,16.9415019 19.780463,16.9699312 C19.8161181,16.9841327 19.8517227,16.998439 19.8902564,17.0108882 C20.1764315,17.105487 20.4781362,17.1530348 20.7850175,17.1530348 C20.8880689,17.1530348 20.9889233,17.1475686 21.094929,17.1364009 C21.1268721,17.1324778 21.1579567,17.1274824 21.1898241,17.1216239 L21.2535588,17.1119993 C21.2965116,17.1057223 21.3411058,17.09955 21.3914067,17.0887223 C21.422567,17.0817392 21.4530456,17.0732914 21.4833726,17.064713 L21.5241538,17.0534668 C21.5730911,17.0419067 21.6212962,17.0298498 21.6783646,17.0116205 L21.8066169,16.963288 C21.8540644,16.9461834 21.902219,16.9284249 21.9422931,16.9105356 C21.9653225,16.9008063 21.9882761,16.8893248 22.0238554,16.8707032 C22.0853428,16.8412277 22.1490775,16.8110461 22.1995552,16.7823552 C22.2187716,16.772626 22.2358416,16.7617983 22.2543762,16.7500813 C22.3100557,16.7169181 22.3663413,16.682395 22.4211623,16.6455964 L22.4827254,16.6022332 C22.9527313,16.2644553 23.3189536,15.7934755 23.5436413,15.2403202 C23.6918928,14.8737991 23.7719147,14.4919519 23.7815103,14.103017 L23.7830506,14.0201352 C23.7830506,13.6536927 23.7207805,13.2915917 23.5976542,12.944843 C23.1685052,11.713098 22.0379458,10.8857973 20.7842095,10.8857973 C19.4616883,10.8857973 18.3119376,11.7759197 17.9241758,13.0998311 C17.8515273,13.3469334 17.8092816,13.5832863 17.794459,13.8256285 L17.7914288,13.8722087 C17.7884743,13.921038 17.7854694,13.9698674 17.7854694,14.0201352 L17.7870098,14.06036 C17.8018576,15.3050511 18.5202118,16.4221896 19.6159243,16.9058541 L19.6159243,16.9058541 Z" id="Path" fill-opacity="0.7" fill="#FFFFFF"></path>
                </g>
            </g>
        </g>
    </g>
</svg>