<svg xmlns="http://www.w3.org/2000/svg" width="43" height="44" viewBox="0 0 43 44">
  <metadata><?xpacket begin="﻿" id="W5M0MpCehiHzreSzNTczkc9d"?>
<x:xmpmeta xmlns:x="adobe:ns:meta/" x:xmptk="Adobe XMP Core 5.6-c138 79.159824, 2016/09/14-01:09:01        ">
   <rdf:RDF xmlns:rdf="http://www.w3.org/1999/02/22-rdf-syntax-ns#">
      <rdf:Description rdf:about=""/>
   </rdf:RDF>
</x:xmpmeta>
                                                                                                    
                                                                                                    
                                                                                                    
                                                                                                    
                                                                                                    
                                                                                                    
                                                                                                    
                                                                                                    
                                                                                                    
                                                                                                    
                                                                                                    
                                                                                                    
                                                                                                    
                                                                                                    
                                                                                                    
                                                                                                    
                                                                                                    
                                                                                                    
                                                                                                    
                                                                                                    
                           
<?xpacket end="w"?></metadata>
<defs>
    <style>
      .cls-1 {
        fill: #5bafff;
        fill-rule: evenodd;
      }
    </style>
  </defs>
  <path id="test_drive.svg" data-name="test drive.svg" class="cls-1" d="M375.5,447A22.006,22.006,0,1,1,397,425,21.755,21.755,0,0,1,375.5,447Zm16.2-28.727A5.421,5.421,0,0,1,388.726,416c-1.191-1.578-1.715-3.222-1.27-3.887a17.366,17.366,0,0,0-23.8-.119c0.593,0.575.083,2.332-1.184,4.006-1.1,1.455-2.409,2.357-3.182,2.274A17.527,17.527,0,1,0,391.7,418.273Zm-5.34,10.478c-5.208,0-7.223,5.48-7.223,5.48l0.044,6.893-3.528.068V441.2l-0.353,0-0.348,0v-0.011l-3.6-.068,0.035-6.893s-1.65-5.48-6.855-5.48c-3.255,0-4.547-.028-4.547-0.028s-0.928-1.544-.785-5.018c7.516-.327,5.942-5.321,15.75-5.558v-0.022l0.35,0.011c0.121,0,.224-0.011.351-0.011v0.022c9.821,0.234,8.52,5.231,16.038,5.558,0.144,3.474-.787,5.018-0.787,5.018s-1.288.028-4.542,0.028m-10.947-9.064c-3.53,0-6.388,2.513-6.388,5.615s2.861,5.615,6.388,5.615S381.8,428.4,381.8,425.3s-2.861-5.615-6.391-5.615m-0.022,1.188c-2.985,0-5.4,2-5.4,4.469s2.419,4.468,5.4,4.468,5.4-2,5.4-4.468-2.418-4.469-5.4-4.469" transform="translate(-354 -403)"/>
</svg>
