<?xml version="1.0" encoding="UTF-8"?>
<svg width="32px" height="32px" viewBox="0 0 32 32" version="1.1" xmlns="http://www.w3.org/2000/svg" xmlns:xlink="http://www.w3.org/1999/xlink">
    <!-- Generator: Sketch 39 (31667) - http://www.bohemiancoding.com/sketch -->
    <title>my-favorite</title>
    <desc>Created with Sketch.</desc>
    <defs></defs>
    <g id="车讯录" stroke="none" stroke-width="1" fill="none" fill-rule="evenodd">
        <g id="01-车讯录-首页" transform="translate(-12.000000, -88.000000)">
            <g id="我的关注" transform="translate(0.000000, 76.000000)">
                <g id="my-favorite" transform="translate(12.000000, 12.000000)">
                    <rect id="Rectangle-4" fill="#FFD170" x="0" y="0" width="32" height="32"></rect>
                    <path d="M23.8512,19.62925 C23.6667,19.44025 23.4471,19.29175 23.1987,19.18735 C22.9314,19.07575 22.6389,19.01905 22.3275,19.01905 C21.9216,19.01905 21.5247,19.10815 21.1809,19.27735 C20.9325,19.39885 20.7183,19.55815 20.55,19.74535 C20.3826,19.55815 20.1684,19.39885 19.92,19.27735 C19.5762,19.10815 19.1793,19.01905 18.7734,19.01905 C18.462,19.01905 18.1695,19.07575 17.9022,19.18735 C17.6538,19.29175 17.4342,19.44025 17.2497,19.62925 C16.9041,19.98295 16.7052,20.45905 16.7052,20.93515 C16.7052,21.43195 16.8951,21.95125 17.2686,22.47685 C17.5629,22.89175 17.9724,23.31385 18.4863,23.73055 C19.3647,24.44155 20.2512,24.90235 20.3493,24.95185 C20.4735,25.01575 20.6274,25.01575 20.7516,24.95185 C20.8497,24.90235 21.7353,24.44245 22.6137,23.73055 C23.1285,23.31385 23.538,22.89175 23.8323,22.47685 C24.2058,21.95125 24.3948,21.43195 24.3948,20.93515 C24.3948,20.45905 24.1968,19.98295 23.8512,19.62925" id="Fill-4" fill-opacity="0.7" fill="#FFFFFF"></path>
                    <path d="M16.57173,22.97149 C16.09383,22.29829 15.85083,21.61339 15.85083,20.93479 C15.85083,20.23729 16.13793,19.54339 16.63923,19.03129 C16.90383,18.76039 17.21793,18.54799 17.57163,18.39949 C17.94513,18.24379 18.34923,18.16459 18.77313,18.16459 C19.30953,18.16459 19.83603,18.28429 20.29593,18.51019 C20.38413,18.55339 20.46873,18.60019 20.55063,18.64969 C20.56413,18.64159 20.57853,18.63439 20.59203,18.62719 C19.81803,18.01969 18.93423,17.54719 17.97123,17.25289 C19.76493,16.37449 20.99973,14.53129 20.99973,12.40009 C20.99973,9.41749 18.58233,7.00009 15.59973,7.00009 C12.61803,7.00009 10.19973,9.41749 10.19973,12.40009 C10.19973,14.53129 11.43543,16.37449 13.22823,17.25289 C9.91173,18.26629 7.49973,21.35149 7.49973,25.00009 L18.77223,25.00009 C18.51123,24.82369 18.23043,24.62299 17.94873,24.39439 C17.37363,23.92819 16.91013,23.44939 16.57173,22.97149" id="Fill-1" fill="#FFFFFF"></path>
                </g>
            </g>
        </g>
    </g>
</svg>