<?xml version="1.0" encoding="UTF-8"?>
<svg width="58px" height="48px" viewBox="0 0 58 48" version="1.1" xmlns="http://www.w3.org/2000/svg" xmlns:xlink="http://www.w3.org/1999/xlink">
    <!-- Generator: Sketch 43.1 (39012) - http://www.bohemiancoding.com/sketch -->
    <title>no-collection</title>
    <desc>Created with Sketch.</desc>
    <defs></defs>
    <g id="车讯录" stroke="none" stroke-width="1" fill="none" fill-rule="evenodd">
        <g id="02-我的收藏" transform="translate(-159.000000, -144.000000)" fill="#C6CDD5">
            <g id="verify-result" transform="translate(20.000000, 84.000000)">
                <g id="no-collection" transform="translate(139.000000, 60.000000)">
                    <path d="M54,28.5143242 C56.4430067,30.5319075 58,33.5841261 58,37 C58,43.0751322 53.0751322,48 47,48 C43.5841261,48 40.5319075,46.4430067 38.5143242,44 L3.99267864,44 C1.78758312,44 0,42.2087482 0,39.9918888 L0,6.00811116 C0,3.79449249 1.79667664,2 3.99267864,2 L12.0000005,2 C12.0000002,2.00055512 12,2.00111028 12,2.00166547 L12,3.99833453 C12,5.66097987 13.3431458,7 15,7 C16.6534829,7 18,5.65610859 18,3.99833453 L18,2.00166547 C18,2.00111028 17.9999999,2.00055512 17.9999996,2 L36.0000005,2 C36.0000002,2.00055512 36,2.00111028 36,2.00166547 L36,3.99833453 C36,5.66097987 37.3431458,7 39,7 C40.6534829,7 42,5.65610859 42,3.99833453 L42,2.00166547 C42,2.00111028 41.9999999,2.00055512 41.9999996,2 L50.0073214,2 C52.2124169,2 54,3.79125179 54,6.00811116 L54,28.5143242 Z M52.4314292,27.4322666 L52.4314292,11 L1.57142857,11 L1.57142857,39.4424081 C1.57142857,41.1068731 2.91083396,42.4455549 4.56307424,42.4455549 L37.4403167,42.4455549 C36.5237403,40.8399655 36,38.9811458 36,37 C36,30.9248678 40.9248678,26 47,26 C48.9753385,26 50.829067,26.5206743 52.4314292,27.4322666 Z M9.6000061,21 C9.6000061,20.5704452 9.95735953,20.2222222 10.3708385,20.2222222 L42.6891744,20.2222222 C43.1148933,20.2222222 43.4600067,20.5674504 43.4600067,21 C43.4600067,21.4295548 43.1026533,21.7777778 42.6891744,21.7777778 L10.3708385,21.7777778 C9.9451195,21.7777778 9.6000061,21.4325496 9.6000061,21 Z M9.6000061,30.3355555 C9.6000061,29.9047734 9.94337451,29.5555556 10.3780151,29.5555556 L30.6819977,29.5555556 C31.1116802,29.5555556 31.4600067,29.9017701 31.4600067,30.3355555 C31.4600067,30.7663376 31.1166383,31.1155555 30.6819977,31.1155555 L10.3780151,31.1155555 C9.9483326,31.1155555 9.6000061,30.7693409 9.6000061,30.3355555 Z M13.5,1.49857602 C13.5,0.670935336 14.1657972,0 15,0 C15.8284271,0 16.5,0.665029764 16.5,1.49857602 L16.5,4.50142398 C16.5,5.32906466 15.8342028,6 15,6 C14.1715729,6 13.5,5.33497024 13.5,4.50142398 L13.5,1.49857602 Z M37.5,1.49857602 C37.5,0.670935336 38.1657972,0 39,0 C39.8284271,0 40.5,0.665029764 40.5,1.49857602 L40.5,4.50142398 C40.5,5.32906466 39.8342028,6 39,6 C38.1715729,6 37.5,5.33497024 37.5,4.50142398 L37.5,1.49857602 Z M46.9863721,41.5408076 L49.7663654,42.5138052 C50.4613637,42.7918046 51.0173623,42.3748056 51.0173623,41.5871408 L50.9246959,38.6218147 L52.7316915,36.2588205 C53.2413569,35.6564886 53.0096908,35.0078236 52.2683593,34.7761574 L49.4420328,33.9421595 L47.7740369,31.4864988 C47.3570379,30.8378337 46.6157064,30.8378337 46.1987074,31.4864988 L44.5307115,33.9421595 L41.704385,34.7761574 C41.0093867,34.9614903 40.7777206,35.6564886 41.2410528,36.2588205 L43.0480484,38.6218147 L42.955382,41.5871408 C42.9090488,42.3748056 43.4650474,42.7918046 44.2063789,42.5138052 L46.9863721,41.5408076 Z" id="订单"></path>
                </g>
            </g>
        </g>
    </g>
</svg>