<?xml version="1.0" encoding="UTF-8"?>
<svg width="57px" height="60px" viewBox="0 0 57 60" version="1.1" xmlns="http://www.w3.org/2000/svg" xmlns:xlink="http://www.w3.org/1999/xlink">
    <!-- Generator: Sketch 43.1 (39012) - http://www.bohemiancoding.com/sketch -->
    <title>no-carfriends</title>
    <desc>Created with Sketch.</desc>
    <defs></defs>
    <g id="车讯录" stroke="none" stroke-width="1" fill="none" fill-rule="evenodd">
        <g id="03-好车友" transform="translate(-159.000000, -144.000000)" fill="#C6CDD5">
            <g id="verify-result" transform="translate(20.000000, 84.000000)">
                <path d="M168.986806,96.607149 L170.530083,94.4830104 L174.854573,88.5587079 C175.111039,88.6355309 175.324604,88.7021595 175.490731,88.7514937 C177.038601,89.21225 177.865644,90.9272974 178.130237,91.3747643 C178.331895,91.7164631 180.848932,95.5199324 181.980257,97.3920848 L181.980257,97.3920848 C182.785187,98.7665257 183.498266,99.4659432 182.843775,101.078681 C181.08631,104.151785 180.730054,104.117379 180.730054,104.117379 L177.366129,104.112464 C177.366129,101.153451 174.59303,96.9368191 168.986805,96.6071491 Z M166.532184,96.7200715 C161.424232,97.5081061 159.124929,101.581789 159.191979,104.117925 L155.515457,104.117925 C155.232531,103.916219 154.505467,102.730377 153.654989,101.165517 C152.881053,99.5957414 154.071534,98.0980559 154.543077,97.3540374 C155.217789,96.2209884 157.500095,92.8158338 158.988431,90.4798304 C159.961,89.0300228 160.457113,88.9819629 160.457113,88.9819629 C164.366855,87.2538082 168.130126,87.5419857 168.276597,87.5419857 C170.04661,87.5419857 171.602964,87.7711441 172.840778,88.0370362 L166.532184,96.7200715 Z M186.273364,109.944937 L192.010333,115.681905 C192.791423,116.462995 192.796902,117.723914 192.010408,118.510408 C191.229359,119.291456 189.966828,119.295255 189.181905,118.510333 L183.056389,112.384816 C178.583787,115.303578 173.240464,117 167.5,117 C151.759885,117 139,104.243576 139,88.5 C139,72.7598846 151.756424,60 167.5,60 C183.240115,60 196,72.7564238 196,88.5 C196,97.0502622 192.235806,104.721111 186.273364,109.944937 Z M140.5,88.5 C140.5,103.414967 152.588312,115.5 167.5,115.5 C182.414967,115.5 194.5,103.411688 194.5,88.5 C194.5,73.5850331 182.411688,61.5 167.5,61.5 C152.585033,61.5 140.5,73.5883118 140.5,88.5 Z M168.246736,98.6017749 C172.118679,98.6017749 175.257133,101.023704 175.257322,104.117743 L161.23615,104.117743 C161.23615,101.023886 164.374982,98.6017749 168.246736,98.6017749 Z M168.337227,86.5677912 C164.484024,86.5677913 161.34909,83.4496208 161.34909,79.6172264 C161.34909,75.7846479 164.484619,72.6666616 168.337227,72.6666616 C172.190231,72.6666616 175.325561,75.7846479 175.325561,79.6172264 C175.325561,83.4496208 172.190429,86.5677912 168.337227,86.5677912 Z" id="no-carfriends"></path>
            </g>
        </g>
    </g>
</svg>