<?xml version="1.0" encoding="UTF-8"?>
<svg width="32px" height="33px" viewBox="0 0 32 33" version="1.1" xmlns="http://www.w3.org/2000/svg" xmlns:xlink="http://www.w3.org/1999/xlink">
    <!-- Generator: Sketch 39 (31667) - http://www.bohemiancoding.com/sketch -->
    <title>application-no</title>
    <desc>Created with Sketch.</desc>
    <defs></defs>
    <g id="车讯录" stroke="none" stroke-width="1" fill="none" fill-rule="evenodd">
        <g id="01-车讯录-首页" transform="translate(-12.000000, -212.000000)">
            <g id="其他" transform="translate(0.000000, 144.000000)">
                <g id="application-no" transform="translate(11.500000, 68.000000)">
                    <rect id="Rectangle-4" fill="#27BC21" x="0.5" y="0.5" width="32" height="32"></rect>
                    <path d="M25,16.5 C25,11.8055796 21.1944204,8 16.5,8 C11.8055796,8 8,11.8055796 8,16.5 C8,19.6462 9.70934418,22.3931613 12.25,23.8628513 L12.25,21.9440824 C10.6331198,20.6800523 9.59375,18.7114051 9.59375,16.5 C9.59375,12.6857834 12.6857834,9.59375 16.5,9.59375 C20.3142166,9.59375 23.40625,12.6857834 23.40625,16.5 C23.40625,18.7114051 22.3668802,20.6800523 20.75,21.9440824 L20.75,23.8628513 C23.2906558,22.3931613 25,19.6462 25,16.5 Z" id="Combined-Shape" fill="#FFFFFF"></path>
                    <path d="M18.572063,22.417038 C18.3974335,22.5954366 18.2985005,22.911758 18.339984,23.1651511 L18.5501096,24.4490707 C18.6359275,24.9731164 18.426087,25.1336445 17.9763269,24.8860554 L16.8758046,24.2799892 C16.6596917,24.1610059 16.3416522,24.1602422 16.1242562,24.2799892 L15.0235914,24.8860554 C14.5745441,25.133339 14.3638483,24.97388 14.4498087,24.4490707 L14.6600769,23.1651511 C14.7012752,22.9134381 14.6037678,22.5965057 14.4279979,22.417038 L13.5374587,21.5077859 C13.1739442,21.1366314 13.2537748,20.8772815 13.7567078,20.8007596 L14.98724,20.6133494 C15.2287276,20.5766922 15.486324,20.3814924 15.5950932,20.1508574 L16.1453543,18.9828663 C16.3700206,18.5060168 16.6297552,18.5054058 16.8547065,18.9828663 L17.4049677,20.1508574 C17.5128816,20.3799651 17.7697652,20.5763867 18.0128209,20.6133494 L19.2433531,20.8007596 C19.7455733,20.8771288 19.8265444,21.1361732 19.4624597,21.5077859 L18.572063,22.417038 Z" id="Fill-1" fill-opacity="0.8" fill="#FFFFFF"></path>
                </g>
            </g>
        </g>
    </g>
</svg>