<?xml version="1.0" encoding="UTF-8"?>
<svg width="22px" height="21px" viewBox="0 0 22 21" version="1.1" xmlns="http://www.w3.org/2000/svg" xmlns:xlink="http://www.w3.org/1999/xlink">
    <!-- Generator: Sketch 43.1 (39012) - http://www.bohemiancoding.com/sketch -->
    <title>Shape</title>
    <desc>Created with Sketch.</desc>
    <defs></defs>
    <g id="车讯录" stroke="none" stroke-width="1" fill="none" fill-rule="evenodd">
        <g id="06-车讯录-商家号-商家消息" transform="translate(-12.000000, -721.000000)" fill-rule="nonzero" fill="#5BAFFF">
            <g id="Tool-Bar" transform="translate(0.000000, 609.000000)">
                <g id="底部标签" transform="translate(12.000000, 0.000000)">
                    <path d="M22,123.330059 C22,121.468515 21.1513586,119.947706 20.0826357,119.847457 C19.0756769,115.623105 15.3878334,112.5 10.9918968,112.5 C6.59533932,112.5 2.90704629,115.623991 1.90070834,119.849249 C0.839842393,119.963662 0,121.478188 0,123.330037 C0,125.256419 0.908757039,126.818058 2.02976006,126.818058 C3.15076307,126.818058 4.05952011,126.844313 4.05952011,123.330037 C4.05952011,121.328366 3.75189831,120.475248 3.27388457,120.111714 C4.16617832,116.574421 7.26821516,113.955302 10.9581353,113.955302 C14.6505602,113.955302 17.7543739,116.577984 18.6442699,120.118968 L18.6874513,120.118968 C18.2315956,120.486389 17.9405013,121.341191 17.9405013,123.330059 C17.9405013,124.866198 18.1216618,125.725902 18.4219833,126.207022 C18.1610539,126.663248 17.3675399,127.940788 16.116008,128.99693 C15.1380366,129.822217 13.8209083,130.191084 12.9794817,130.35114 C12.5996483,129.845082 11.7878728,129.495431 10.8477091,129.495431 C9.54368304,129.495431 8.48656363,130.168024 8.48656363,130.997716 C8.48656363,131.827407 9.54368304,132.5 10.8477091,132.5 C11.6603839,132.5 12.3771048,132.238744 12.801875,131.841075 C13.4443291,131.53262 15.4518883,130.535293 16.5597036,129.60423 C17.5540955,128.768515 18.6324523,127.38576 19.1144695,126.739574 C19.3745211,126.814517 19.6644807,126.81808 19.9702399,126.81808 C21.0912644,126.818058 22,125.256419 22,123.330059 Z" id="Shape"></path>
                </g>
            </g>
        </g>
    </g>
</svg>