<?xml version="1.0" encoding="UTF-8"?>
<svg width="32px" height="32px" viewBox="0 0 32 32" version="1.1" xmlns="http://www.w3.org/2000/svg" xmlns:xlink="http://www.w3.org/1999/xlink">
    <!-- Generator: Sketch 43.1 (39012) - http://www.bohemiancoding.com/sketch -->
    <title>商家-默认头像</title>
    <desc>Created with Sketch.</desc>
    <defs></defs>
    <g id="车讯录" stroke="none" stroke-width="1" fill="none" fill-rule="evenodd">
        <g id="01-车讯录" transform="translate(-12.000000, -302.000000)" fill-rule="nonzero">
            <g id="车友" transform="translate(0.000000, 290.000000)">
                <g id="商家-默认头像" transform="translate(12.000000, 12.000000)">
                    <rect id="Rectangle-4" fill="#EAEAEA" x="0" y="0" width="32" height="32"></rect>
                    <path d="M25.8110591,12.6904533 C25.799945,12.6404396 25.7888308,12.5904258 25.7666025,12.5404121 L24.0772491,8.38927082 C23.7827237,7.5279229 22.9436041,7 21.9600004,7 L10.0900704,7 C9.09535252,7 8.31736086,7.52236582 8.03950671,8.35037126 L6.22234046,12.5848687 C6.21122628,12.6182113 6.20011211,12.6515537 6.19455503,12.6848962 C5.59994713,14.4965054 6.40572418,16.4748271 8.10063462,17.3584033 C8.63411461,17.6362575 9.26206502,17.7807417 9.9678146,17.7807417 C11.1348021,17.7807417 12.2406617,17.26949 12.996425,16.3859137 C13.7410742,17.2583758 14.8302625,17.7640704 16.0083642,17.7751846 C17.1642375,17.7696275 18.2589829,17.2639329 19.0036321,16.3859137 C19.7538383,17.2639329 20.8485838,17.7751845 22.0377996,17.7751846 C22.7546633,17.7696275 23.399285,17.6251433 23.932765,17.3306179 C25.2108942,16.6415396 26,15.3245108 26,13.8907833 C26,13.4795591 25.9388721,13.073892 25.8110591,12.6904533 L25.8110591,12.6904533 Z M23.2436867,16.0802741 C22.8713621,16.269215 22.4545808,16.3581283 22.0322425,16.3470142 C21.1542233,16.3470142 20.3540033,15.9080046 19.8872084,15.1633554 C19.8371946,15.0522137 19.7760667,14.9521862 19.6982675,14.8632729 C19.5204408,14.6743321 19.264815,14.5687475 19.0091892,14.5798616 C18.7480062,14.5743045 18.4923804,14.6798891 18.3145538,14.8743871 C18.2145263,14.9799717 18.1645125,15.0911133 18.1256129,15.1689125 C17.6699321,15.9024475 16.8697121,16.3470142 16.0083642,16.3525712 C15.1414592,16.3525712 14.3356821,15.9024475 13.8744442,15.1633554 C13.8299875,15.068885 13.7744167,14.9744145 13.7021746,14.8966154 C13.3631925,14.4965054 12.6018721,14.5187337 12.3073467,14.8632729 C12.196205,14.9799717 12.1406342,15.0966704 12.1072917,15.1800267 C11.6404967,15.9135616 10.8347196,16.3581283 9.96225752,16.3581283 C9.49546252,16.3581283 9.09535252,16.2747721 8.77304168,16.1025025 C7.65606792,15.5245658 7.14481628,14.20198 7.58938293,13.0294354 L9.37876375,8.85606581 C9.41766336,8.75048122 9.528805,8.42261334 10.0845134,8.42261334 L21.9544433,8.42261334 C22.1822837,8.43372751 22.5768366,8.47262707 22.7157638,8.88385125 L24.3940029,13.00165 L24.4162312,13.0850062 C24.8163412,14.2353225 24.3162037,15.5023375 23.2436867,16.0802741 L23.2436867,16.0802741 Z M23.7827237,18.3586783 C23.5937829,18.3586783 23.4103992,18.4309204 23.2770292,18.5642904 C23.1436592,18.6976604 23.06586,18.8810442 23.06586,19.069985 L23.06586,22.9488291 C23.06586,23.0544137 23.0214033,23.1599983 22.9436042,23.2322404 C22.865805,23.3100395 22.7657775,23.3489391 22.6546359,23.3489391 L9.08979543,23.3600533 C8.86751211,23.3600533 8.68968543,23.1822266 8.68412834,22.9599433 L8.67857126,19.1477841 C8.67301417,18.7532312 8.35070333,18.4364775 7.95615046,18.4364775 C7.56159758,18.4364775 7.2392867,18.7532312 7.23372962,19.1533412 L7.2392867,22.9655004 C7.25040088,23.9768896 8.07840627,24.7882237 9.08979543,24.7826666 L22.66575,24.7715525 C23.6771391,24.7771096 24.5051446,23.9602183 24.5107017,22.9488291 L24.5107017,19.069985 C24.4995875,18.675432 24.1772767,18.3586783 23.7827237,18.3586783 L23.7827237,18.3586783 Z M21.6432467,13.3795317 L10.1011846,13.3795317 C9.70663167,13.3795317 9.38432084,13.0627779 9.37876375,12.668225 C9.37876375,12.2736721 9.70107459,11.9569183 10.1011846,11.9569183 L21.6432467,11.9569183 C22.0433567,11.9569183 22.3656675,12.2736721 22.3656675,12.668225 C22.3656675,12.8571658 22.2878683,13.0405496 22.1544983,13.1739196 C22.0155713,13.3072895 21.8321875,13.3850887 21.6432467,13.3795317 L21.6432467,13.3795317 Z" id="Shape" fill="#FFFFFF"></path>
                </g>
            </g>
        </g>
    </g>
</svg>