<svg xmlns="http://www.w3.org/2000/svg" width="26" height="20" viewBox="0 0 26 20">
  <defs>
    <style>
      .cls-1 {
        fill: #5bafff;
        fill-rule: evenodd;
      }
    </style>
  </defs>
  <path id="telephone.svg" class="cls-1" d="M141,3199.03c0,3.97-1.89,3.97-11,3.97s-11,0-11-3.97c0-4.29,4.982-12.89,11-12.89s11,8.6,11,12.89h0Zm-11-11.07a4.463,4.463,0,1,0,4.639,4.46,4.532,4.532,0,0,0-4.639-4.46h0Zm-9.622,3.3c1.89-2.97,5.155-6.11,9.622-6.11s8.075,3.47,9.621,6.11a1.747,1.747,0,0,0,3.093,0c0.515-.82,1.89-8.26-12.714-8.26s-13.23,7.6-12.714,8.26a1.941,1.941,0,0,0,3.092,0h0Z" transform="translate(-117 -3183)"/>
</svg>
