<svg xmlns="http://www.w3.org/2000/svg" width="43" height="36" viewBox="0 0 43 36">
  <metadata><?xpacket begin="﻿" id="W5M0MpCehiHzreSzNTczkc9d"?>
<x:xmpmeta xmlns:x="adobe:ns:meta/" x:xmptk="Adobe XMP Core 5.6-c138 79.159824, 2016/09/14-01:09:01        ">
   <rdf:RDF xmlns:rdf="http://www.w3.org/1999/02/22-rdf-syntax-ns#">
      <rdf:Description rdf:about=""/>
   </rdf:RDF>
</x:xmpmeta>
                                                                                                    
                                                                                                    
                                                                                                    
                                                                                                    
                                                                                                    
                                                                                                    
                                                                                                    
                                                                                                    
                                                                                                    
                                                                                                    
                                                                                                    
                                                                                                    
                                                                                                    
                                                                                                    
                                                                                                    
                                                                                                    
                                                                                                    
                                                                                                    
                                                                                                    
                                                                                                    
                           
<?xpacket end="w"?></metadata>
<defs>
    <style>
      .cls-1 {
        fill: #5bafff;
        fill-rule: evenodd;
      }
    </style>
  </defs>
  <path id="selling_models.svg" data-name="selling models.svg" class="cls-1" d="M646.917,423.5l-0.49-1.5a2.216,2.216,0,0,0-1.926-1.5h-1.779c-1.333-3.92-2.964-8.652-3.439-9.759-0.74-1.724-3.1-2.5-4.4-2.878,0,0-2.164-.862-9.39-0.862s-9.391.862-9.391,0.862c-1.519.531-3.63,1.283-4.468,2.957-0.392.787-2.05,5.65-3.4,9.68H606.5a2.216,2.216,0,0,0-1.922,1.5l-0.492,1.5a1.031,1.031,0,0,0,.942,1.5h1.72c-0.224.675-.357,1.083-0.357,1.083a6.466,6.466,0,0,0-.239,1.668v13.658A1.556,1.556,0,0,0,607.666,443h5.565a1.555,1.555,0,0,0,1.518-1.591V438.5h21.5v2.909A1.555,1.555,0,0,0,637.768,443h5.564a1.557,1.557,0,0,0,1.52-1.591V427.748a6.472,6.472,0,0,0-.239-1.668s-0.138-.409-0.364-1.083h1.73a1.027,1.027,0,0,0,.938-1.5h0Zm-35.406-2.4a55.569,55.569,0,0,1,2.636-8.471c0.215-.563.426-2.3,11.353-2.3s11.182,1.985,11.209,2.009a76.018,76.018,0,0,1,2.74,8.764s-4.613,1.644-13.954,1.644-13.984-1.644-13.984-1.644h0Zm3.206,10.765h-2.3c-2.06,0-4.117-.289-4.117-1.658v-1.657c0-1.6.888-1.66,1.844-1.66a13.424,13.424,0,0,1,4.006,1.4c1.328,0.62,2.816,1.14,2.816,2.175,0,0.955-.513,1.4-2.248,1.4h0Zm19.317-1.4c0-1.038,1.486-1.551,2.815-2.174a13.552,13.552,0,0,1,4-1.4c0.957,0,1.843.059,1.843,1.658v1.66h0c0,1.372-2.059,1.657-4.117,1.657h-2.3c-1.734,0-2.247-.443-2.247-1.4h0Z" transform="translate(-604 -407)"/>
</svg>
