<svg xmlns="http://www.w3.org/2000/svg" width="40" height="37" viewBox="0 0 40 37">
  <metadata><?xpacket begin="﻿" id="W5M0MpCehiHzreSzNTczkc9d"?>
<x:xmpmeta xmlns:x="adobe:ns:meta/" x:xmptk="Adobe XMP Core 5.6-c138 79.159824, 2016/09/14-01:09:01        ">
   <rdf:RDF xmlns:rdf="http://www.w3.org/1999/02/22-rdf-syntax-ns#">
      <rdf:Description rdf:about=""/>
   </rdf:RDF>
</x:xmpmeta>
                                                                                                    
                                                                                                    
                                                                                                    
                                                                                                    
                                                                                                    
                                                                                                    
                                                                                                    
                                                                                                    
                                                                                                    
                                                                                                    
                                                                                                    
                                                                                                    
                                                                                                    
                                                                                                    
                                                                                                    
                                                                                                    
                                                                                                    
                                                                                                    
                                                                                                    
                                                                                                    
                           
<?xpacket end="w"?></metadata>
<defs>
    <style>
      .cls-1 {
        fill: #5bafff;
        fill-rule: evenodd;
      }
    </style>
  </defs>
  <path id="home_shop.svg" data-name="home shop.svg" class="cls-1" d="M139,429.735a5.435,5.435,0,0,1-5.027-3.627,5.223,5.223,0,0,1-9.946,0A5.436,5.436,0,0,1,119,429.735a5.381,5.381,0,0,1-4.973-3.627A5.436,5.436,0,0,1,109,429.735a4.98,4.98,0,0,1-1.543-.246v12.026A2.684,2.684,0,0,0,109.629,444h28.742a2.684,2.684,0,0,0,2.172-2.485V429.494a5.1,5.1,0,0,1-1.543.241h0Zm1.457-17.353H107.429L104,422.136a5.011,5.011,0,1,0,10,0,5.011,5.011,0,1,0,10,0,4.984,4.984,0,1,0,9.943,0,5.038,5.038,0,1,0,10.057,0l-3.543-9.754h0Zm-1.6-.062h0l0.114,0.062-0.114-.062h0Zm-29.143-1.593h28.571a1.87,1.87,0,0,0,0-3.727H109.714a1.87,1.87,0,0,0,0,3.727h0Zm-1.6-.829h0Z" transform="translate(-104 -407)"/>
</svg>
