<?xml version="1.0" encoding="UTF-8"?>
<svg width="24px" height="24px" viewBox="0 0 24 24" version="1.1" xmlns="http://www.w3.org/2000/svg" xmlns:xlink="http://www.w3.org/1999/xlink">
    <!-- Generator: Sketch 39 (31667) - http://www.bohemiancoding.com/sketch -->
    <title>Artboard</title>
    <desc>Created with Sketch.</desc>
    <defs></defs>
    <g id="首页/个人信息" stroke="none" stroke-width="1" fill="none" fill-rule="evenodd">
        <g id="Artboard">
            <g id="钱包">
                <rect id="Rectangle-13" fill-opacity="0" fill="#FFF2F2" x="0" y="0" width="24" height="24"></rect>
                <path d="M22,9.16666667 L22,4.4999602 C22,3.95470893 21.5559546,3.5 21.0081969,3.5 L2.99180311,3.5 C2.45530558,3.5 2,3.94769743 2,4.4999602 L2,19.5000398 C2,20.0452911 2.44404538,20.5 2.99180311,20.5 L21.0081969,20.5 C21.5446944,20.5 22,20.0523026 22,19.5000398 L22,14.8333333 L17.0498793,14.8333333 C15.4882074,14.8333333 14.2222222,13.5616227 14.2222222,12 C14.2222222,10.4351932 15.5006783,9.16666667 17.0498793,9.16666667 L22,9.16666667 Z M17.2777778,13.4166667 C18.0448399,13.4166667 18.6666667,12.7824034 18.6666667,12 C18.6666667,11.2175966 18.0448399,10.5833333 17.2777778,10.5833333 C16.5107156,10.5833333 15.8888889,11.2175966 15.8888889,12 C15.8888889,12.7824034 16.5107156,13.4166667 17.2777778,13.4166667 Z" fill="#5BAFFF"></path>
            </g>
        </g>
    </g>
</svg>