<?xml version="1.0" encoding="UTF-8"?>
<svg width="24px" height="24px" viewBox="0 0 24 24" version="1.1" xmlns="http://www.w3.org/2000/svg" xmlns:xlink="http://www.w3.org/1999/xlink">
    <!-- Generator: Sketch 39 (31667) - http://www.bohemiancoding.com/sketch -->
    <title>Artboard</title>
    <desc>Created with Sketch.</desc>
    <defs></defs>
    <g id="首页/个人信息" stroke="none" stroke-width="1" fill="none" fill-rule="evenodd">
        <g id="Artboard">
            <g id="卡券">
                <rect id="Rectangle-13" fill-opacity="0" fill="#FFF2F2" x="0" y="0" width="24" height="24"></rect>
                <path d="M1.5,9.57142857 L1.5,4.4999602 C1.5,3.94769743 1.93861485,3.5 2.49874609,3.5 L8.5,3.5 L8.5,5.95042626 C8.5,6.27372898 8.76116723,6.53571429 9.08333333,6.53571429 C9.39607747,6.53571429 9.66666667,6.27367191 9.66666667,5.95042626 L9.66666667,3.5 L21.5012539,3.5 C22.0528461,3.5 22.5,3.95470893 22.5,4.4999602 L22.5,9.57142857 C21.2113356,9.57142857 20.1666667,10.658737 20.1666667,12 C20.1666667,13.341263 21.2113356,14.4285714 22.5,14.4285714 L22.5,19.5000398 C22.5,20.0523026 22.0613852,20.5 21.5012539,20.5 L9.66666667,20.5 L9.66666667,18.0495737 C9.66666667,17.726271 9.40549944,17.4642857 9.08333333,17.4642857 C8.77058919,17.4642857 8.5,17.7263281 8.5,18.0495737 L8.5,20.5 L2.49874609,20.5 C1.94715386,20.5 1.5,20.0452911 1.5,19.5000398 L1.5,14.4285714 C2.78866442,14.4285714 3.83333333,13.341263 3.83333333,12 C3.83333333,10.658737 2.78866442,9.57142857 1.5,9.57142857 Z M8.5,13.1924309 C8.5,12.8691852 8.77058919,12.6071429 9.08333333,12.6071429 C9.40549944,12.6071429 9.66666667,12.8691282 9.66666667,13.1924309 L9.66666667,15.664712 C9.66666667,15.9879576 9.39607747,16.25 9.08333333,16.25 C8.76116723,16.25 8.5,15.9880147 8.5,15.664712 L8.5,13.1924309 Z M8.5,8.33528802 C8.5,8.01204237 8.77058919,7.75 9.08333333,7.75 C9.40549944,7.75 9.66666667,8.0119853 9.66666667,8.33528802 L9.66666667,10.8075691 C9.66666667,11.1308148 9.39607747,11.3928571 9.08333333,11.3928571 C8.76116723,11.3928571 8.5,11.1308718 8.5,10.8075691 L8.5,8.33528802 Z" fill="#FFCF70"></path>
            </g>
        </g>
    </g>
</svg>