<?xml version="1.0" encoding="UTF-8"?>
<svg width="24px" height="24px" viewBox="0 0 24 24" version="1.1" xmlns="http://www.w3.org/2000/svg" xmlns:xlink="http://www.w3.org/1999/xlink">
    <!-- Generator: Sketch 43.1 (39012) - http://www.bohemiancoding.com/sketch -->
    <title>Artboard</title>
    <desc>Created with Sketch.</desc>
    <defs></defs>
    <g id="首页/个人信息" stroke="none" stroke-width="1" fill="none" fill-rule="evenodd">
        <g id="Artboard" fill="#C5B6FF">
            <path d="M5.5,4.37949356 C5.5,5.22425585 6.17905314,5.8984809 7.01670764,5.8984809 L16.9832924,5.8984809 C17.8193671,5.8984809 18.5,5.2184071 18.5,4.37949356 L21.0081969,4.37949356 C21.5559546,4.37949356 22,4.82412442 22,5.38036521 L22,19.3786219 C22,19.9313881 21.5446944,20.3794936 21.0081969,20.3794936 L2.99180311,20.3794936 C2.44404538,20.3794936 2,19.9348627 2,19.3786219 L2,5.38036521 C2,4.82759906 2.45530558,4.37949356 2.99180311,4.37949356 L5.5,4.37949356 Z M7,16.2149366 C7,16.4863962 7.22817786,16.7212657 7.50964952,16.7212657 L16.4903505,16.7212657 C16.7723472,16.7212657 17,16.4945744 17,16.2149366 C17,15.9434769 16.7718221,15.7086075 16.4903505,15.7086075 L7.50964952,15.7086075 C7.22765279,15.7086075 7,15.9352987 7,16.2149366 Z M6.5,4.37949356 C6.5,3.96003678 6.84127033,3.61999989 7.25607455,3.61999989 L16.7439255,3.61999989 C17.1614939,3.61999989 17.5,3.95711241 17.5,4.37949356 C17.5,4.79895033 17.1587297,5.13898723 16.7439255,5.13898723 L7.25607455,5.13898723 C6.83850611,5.13898723 6.5,4.8018747 6.5,4.37949356 Z" id="Combined-Shape"></path>
        </g>
    </g>
</svg>