<?xml version="1.0" encoding="UTF-8"?>
<svg width="27px" height="25px" viewBox="0 0 27 25" version="1.1" xmlns="http://www.w3.org/2000/svg" xmlns:xlink="http://www.w3.org/1999/xlink">
    <!-- Generator: Sketch 43.1 (39012) - http://www.bohemiancoding.com/sketch -->
    <title>Shape</title>
    <desc>Created with Sketch.</desc>
    <defs></defs>
    <g id="车商城" stroke="none" stroke-width="1" fill="none" fill-rule="evenodd">
        <g id="iPhone-7" transform="translate(-12.000000, -202.000000)" fill-rule="nonzero" fill="#499FFF">
            <g id="充值栏" transform="translate(12.000000, 201.000000)">
                <g id="充值图标">
                    <g id="Group-2">
                        <path d="M9.67680018,1 L17.2835705,1 C22.6060165,1 26.9606452,5.03180949 26.9606452,9.96000017 L26.9606452,17.0030237 C26.9606452,21.9312144 22.6060165,25.9633062 17.2835705,25.9633062 L9.67680018,25.9633062 C4.35462869,25.9633062 -2.49395795e-15,21.9312144 -2.49395795e-15,17.0030237 L-3.55271368e-15,9.96000017 C-3.55271368e-15,5.03180949 4.35462869,1 9.67680018,1 L9.67680018,1 Z M3.80253129,7.93157235 C2.85782993,7.93157235 2.08503381,8.64712428 2.08503381,9.52184779 L2.08503381,18.1227872 C2.08503381,18.997539 2.8578299,19.7130627 3.80253129,19.7130627 L11.3923459,19.7130627 L11.3923459,19.108143 L4.30418852,19.108143 C3.45670802,19.108143 2.76310973,18.4659506 2.76310973,17.6812464 L2.76310973,12.3689206 L24.24209,12.3689206 L24.24209,17.6812747 C24.24209,18.4659788 23.5484917,19.1081712 22.7010112,19.1081712 L16.4789368,19.1081712 L16.4789368,19.7130909 L23.2026684,19.7130909 C24.1474003,19.7130909 24.9201659,18.997539 24.9201659,18.1228155 L24.9201659,9.52187602 C24.9201659,8.64712428 24.1473698,7.93160058 23.2026684,7.93160058 L3.80253129,7.93160061 L3.80253129,7.93157235 Z M13.0698328,19.7329132 L14.6444571,19.7462411 L14.6647368,15.6345776 L16.0987141,16.9497971 C16.0987141,16.9497971 16.8833426,17.6137037 17.4921014,17.16276 C18.1008601,16.7118163 17.6273811,16.1356136 17.6273811,16.1356136 L14.8947063,13.5552668 C14.8947063,13.5552668 14.4482771,13.0166474 13.8801084,13.0041102 C13.3119091,12.991573 13.0142998,13.3423039 13.0142998,13.3423039 L10.5927745,15.6095314 C9.53755602,16.3986405 9.91634534,16.8245381 9.91634534,16.8245381 C10.4033645,17.663796 11.3368129,17.1877779 11.3368129,17.1877779 L13.0698023,15.749643 L13.0698023,19.7329132 L13.0698328,19.7329132 Z M2.76310973,11.2415895 L24.24209,11.2415895 L24.24209,9.9633886 C24.24209,9.1784303 23.5484917,8.5364638 22.7010112,8.5364638 L4.30418852,8.5364638 C3.45670802,8.5364638 2.76310973,9.1784303 2.76310973,9.9633886 L2.76310973,11.2415895 Z" id="Shape"></path>
                    </g>
                </g>
            </g>
        </g>
    </g>
</svg>