<?xml version="1.0" encoding="UTF-8"?>
<svg width="12px" height="12px" viewBox="0 0 12 12" version="1.1" xmlns="http://www.w3.org/2000/svg" xmlns:xlink="http://www.w3.org/1999/xlink">
    <!-- Generator: Sketch 43.1 (39012) - http://www.bohemiancoding.com/sketch -->
    <title>Shape</title>
    <desc>Created with Sketch.</desc>
    <defs></defs>
    <g id="订单中心" stroke="none" stroke-width="1" fill="none" fill-rule="evenodd">
        <g id="15-钱包-充值成功0810" transform="translate(-116.000000, -285.000000)" fill-rule="nonzero" fill="#A5D3FF">
            <g id="verify-result" transform="translate(36.000000, 140.000000)">
                <path d="M90.7488,146.401909 L90.5376,145.688552 C90.4687259,145.244858 90.062246,144.941429 89.628,145.009555 L83.0648,146.625242 L90.7488,146.401091 L90.7488,146.401909 Z M91.088,147.183165 L91.1952,147.183165 C91.6377105,147.184943 91.9964984,147.550376 92,148.002871 L92,156.180294 C92,156.631869 91.6408,157 91.1944,157 L80.8056,157 C80.3627774,156.998669 80.0035056,156.633107 80,156.180294 L80,148.002871 C80,147.551297 80.3592,147.183165 80.8056,147.183165 L91.088,147.183165 Z M89.2,153.318687 C89.6287529,153.318739 90.0249589,153.084866 90.2393502,152.705177 C90.4537414,152.325488 90.4537414,151.857677 90.2393502,151.477988 C90.0249589,151.098299 89.6287529,150.864426 89.2,150.864478 C88.5373144,150.864559 88.0001436,151.413929 88.0001436,152.091583 C88.0001436,152.769236 88.5373144,153.318606 89.2,153.318687 Z" id="Shape"></path>
            </g>
        </g>
    </g>
</svg>