<?xml version="1.0" encoding="UTF-8"?>
<svg width="64px" height="64px" viewBox="0 0 64 64" version="1.1" xmlns="http://www.w3.org/2000/svg" xmlns:xlink="http://www.w3.org/1999/xlink">
    <!-- Generator: Sketch 39 (31667) - http://www.bohemiancoding.com/sketch -->
    <title>默认头像</title>
    <desc>Created with Sketch.</desc>
    <defs></defs>
    <g id="首页/个人信息" stroke="none" stroke-width="1" fill="none" fill-rule="evenodd">
        <g id="10-我" transform="translate(-16.000000, -92.000000)">
            <g id="车主" transform="translate(0.000000, 76.000000)">
                <g id="默认头像" transform="translate(16.000000, 16.000000)">
                    <circle id="Oval" fill="#AAD6FF" cx="32" cy="32" r="32"></circle>
                    <rect id="Rectangle-2" fill="#F1F1F1" x="0" y="0" width="64" height="64" rx="7"></rect>
                    <path d="M31.5723209,34.9199349 C37.8584324,34.9199349 42.9734292,29.8797958 42.9730852,23.6822112 C42.9730852,17.4849706 37.8584754,12.4444444 31.5723639,12.4444444 C25.2862953,12.4444444 20.1716855,17.4867338 20.1716855,23.6822112 C20.1716425,29.8779896 25.2862524,34.9199349 31.5723209,34.9199349 L31.5723209,34.9199349 Z M36.2705364,36.0020782 L27.728174,36.0020782 C19.7899834,36.0020782 13.3333333,42.3618789 13.3333333,50.1815387 L13.3333333,51.0231961 C13.3333333,55.1111111 19.6866371,55.1111111 27.728174,55.1111111 L36.2705363,55.1111111 C43.9956719,55.1111111 50.6666667,55.1111111 50.6666667,51.0231961 L50.6666667,50.1815387 C50.6665807,42.3636421 44.2088989,36.0020782 36.2705364,36.0020782 L36.2705364,36.0020782 Z" id="Shape" fill="#FFFFFF"></path>
                </g>
            </g>
        </g>
    </g>
</svg>