<?xml version="1.0" encoding="UTF-8"?>
<svg width="54px" height="54px" viewBox="0 0 54 54" version="1.1" xmlns="http://www.w3.org/2000/svg" xmlns:xlink="http://www.w3.org/1999/xlink">
    <!-- Generator: Sketch 43.1 (39012) - http://www.bohemiancoding.com/sketch -->
    <title>我的-line</title>
    <desc>Created with Sketch.</desc>
    <defs></defs>
    <g id="CPL线下推广" stroke="none" stroke-width="1" fill="none" fill-rule="evenodd">
        <g id="我的-line" fill-rule="nonzero" fill="#7F8389">
            <g transform="translate(9.500000, 7.000000)" id="Shape">
                <path d="M17.500001,22.2222201 C11.9344474,22.2222201 7.4800005,17.2199983 7.4800005,11.11111 C7.4800005,5.00222174 11.9344474,0 17.500001,0 C23.0655545,0 27.5200014,5.00222174 27.5200014,11.11111 C27.5200014,17.2199983 23.0655545,22.2222201 17.500001,22.2222201 Z M17.500001,19.9999981 C21.7729745,19.9999981 25.2933346,16.0477762 25.2933346,11.11111 C25.2933346,6.17444384 21.7729745,2.22222201 17.500001,2.22222201 C13.2270274,2.22222201 9.70666726,6.17444384 9.70666726,11.11111 C9.70666726,16.0477762 13.2270274,19.9999981 17.500001,19.9999981 Z M0.800000191,32.2222191 C0.799999157,30.1580761 1.62214988,28.1785884 3.08536945,26.7197485 C4.54858902,25.2609086 6.53285665,24.4423779 8.60112721,24.4444421 L26.3988747,24.4444421 C30.7052482,24.4444421 34.2000017,27.9311084 34.2000017,32.2222191 C34.2000028,34.2863621 33.377852,36.2658497 31.9146325,37.7246896 C30.4514129,39.1835296 28.4671453,40.0020602 26.3988747,39.9999961 L8.60112721,39.9999961 C4.29475368,39.9999961 0.800000191,36.5133298 0.800000191,32.2222191 Z M3.02666696,32.2222191 C3.02666696,35.2855521 5.52498707,37.7777741 8.60112721,37.7777741 L26.3988747,37.7777741 C27.8765964,37.7798388 29.2945028,37.1954347 30.3401416,36.1533421 C31.3857803,35.1112496 31.9733364,33.6969925 31.9733349,32.2222191 C31.9733349,29.158886 29.4750148,26.6666641 26.3988747,26.6666641 L8.60112721,26.6666641 C7.12340553,26.6645994 5.70549906,27.2490035 4.65986035,28.291096 C3.61422163,29.3331886 3.02666551,30.7474457 3.02666696,32.2222191 L3.02666696,32.2222191 Z"></path>
            </g>
        </g>
    </g>
</svg>