<?xml version="1.0" encoding="UTF-8"?>
<svg width="24px" height="24px" viewBox="0 0 24 24" version="1.1" xmlns="http://www.w3.org/2000/svg" xmlns:xlink="http://www.w3.org/1999/xlink">
    <!-- Generator: Sketch 39 (31667) - http://www.bohemiancoding.com/sketch -->
    <title>Artboard</title>
    <desc>Created with Sketch.</desc>
    <defs></defs>
    <g id="首页/个人信息" stroke="none" stroke-width="1" fill="none" fill-rule="evenodd">
        <g id="Artboard">
            <g id="俱乐部">
                <rect id="Rectangle-13" fill-opacity="0" fill="#FFF2F2" x="0" y="0" width="24" height="24"></rect>
                <path d="M7.87555829,11.7355302 C7.87003823,11.8234387 7.86209028,11.9107058 7.86209028,12.0000115 C7.86209028,13.291084 8.4538354,14.4434453 9.38040265,15.2024632 C9.40003204,15.2324455 9.41352297,15.26552 9.43968022,15.291723 L15.5045924,21.3562389 C14.4124693,21.7655469 13.2348885,22 12.0000229,22 C8.10105589,22 4.73210562,19.7638084 3.08280079,16.5086529 C3.10176596,16.4941541 3.12453331,16.4865268 3.14212418,16.4689589 L7.87555829,11.7355302 Z M12.0000458,15.1034688 C10.2859433,15.1034688 8.89663072,13.7141349 8.89663072,12.0000115 C8.89663072,10.2862316 10.2859433,8.8965541 12.0000458,8.8965541 C13.7141941,8.8965541 15.1035296,10.2861858 15.1035296,12.0000115 C15.1034838,13.7141349 13.7141941,15.1034688 12.0000458,15.1034688 Z M7.53107033,3.14207708 L12.2641838,7.87552867 C12.1765959,7.86966506 12.0893286,7.86206067 12.0000229,7.86206067 C10.7086053,7.86206067 9.55619689,8.4537822 8.79761332,9.38071488 C8.76760806,9.40000069 8.73451063,9.41344579 8.70830757,9.43964883 L2.6438077,15.5041418 C2.23449919,14.4124323 2,13.2348299 2,11.9999657 C2,8.10102605 4.23619414,4.73205672 7.49139925,3.08275378 C7.50592089,3.1017418 7.51352526,3.12450915 7.53107033,3.14207708 Z M16.1245333,12.2644927 C16.1300304,12.1765384 16.1380242,12.0892942 16.1380242,12.0000115 C16.1380242,10.7085954 15.5462791,9.55621114 14.6193683,8.79726198 C14.6000137,8.76762323 14.5865457,8.73452584 14.5604342,8.70829991 L8.49591148,2.64380696 C9.58766805,2.23449892 10.7652259,2 12.0000916,2 C15.8990357,2 19.2680089,4.23619158 20.9173137,7.49139297 C20.8983943,7.50589168 20.8755812,7.51347315 20.858059,7.531064 L16.1245333,12.2644927 Z M16.5086924,20.9175898 C16.4941936,20.8982811 16.4865663,20.8755367 16.4690442,20.8579 L11.7355642,16.1245172 C11.8234957,16.1300372 11.91074,16.1379622 12.0000458,16.1379622 C13.2910511,16.1379622 14.4435053,15.5462407 15.2024554,14.6196974 C15.2324378,14.600068 15.2655581,14.5866 15.2917612,14.5604199 L21.356261,8.49553761 C21.7655466,9.58763651 22,10.7651931 22,12.0000344 C22.0000916,15.8989969 19.7638975,19.2679433 16.5086924,20.9175898 Z" fill="#FF7272"></path>
            </g>
        </g>
    </g>
</svg>