<?xml version="1.0" encoding="UTF-8"?>
<svg width="24px" height="24px" viewBox="0 0 24 24" version="1.1" xmlns="http://www.w3.org/2000/svg" xmlns:xlink="http://www.w3.org/1999/xlink">
    <!-- Generator: Sketch 39 (31667) - http://www.bohemiancoding.com/sketch -->
    <title>Artboard</title>
    <desc>Created with Sketch.</desc>
    <defs></defs>
    <g id="首页/个人信息" stroke="none" stroke-width="1" fill="none" fill-rule="evenodd">
        <g id="Artboard">
            <g id="设置">
                <rect id="Rectangle-13" fill-opacity="0" fill="#FFF2F2" x="0" y="0" width="24" height="24"></rect>
                <path d="M15.2450291,22.5 C16.8428247,22.0080407 18.2852727,21.1623138 19.4806784,20.054396 C18.7842386,18.9416874 18.7106438,17.4895073 19.413413,16.2722752 C20.1171355,15.0533922 21.4141169,14.3908924 22.7277963,14.4396626 C22.9059447,13.6550142 23,12.8384768 23,12 C23,11.1615232 22.9059447,10.3449858 22.7277963,9.56033742 C21.4141169,9.60910763 20.1171355,8.94660781 19.413413,7.72772478 C18.7106438,6.5104927 18.7842386,5.05831263 19.4806784,3.94560403 C18.2852727,2.83768622 16.8428247,1.99195927 15.2450291,1.5 C14.6306698,2.6628373 13.4080164,3.45544955 12,3.45544955 C10.5919836,3.45544955 9.36933016,2.6628373 8.75497087,1.5 C7.15717534,1.99195927 5.71472734,2.83768622 4.51932165,3.94560403 C5.21576143,5.05831263 5.28935623,6.5104927 4.58658696,7.72772478 C3.88286451,8.94660781 2.58588309,9.60910763 1.2722037,9.56033742 C1.09405529,10.3449858 1,11.1615232 1,12 C1,12.8384768 1.09405529,13.6550142 1.2722037,14.4396626 C2.58588309,14.3908924 3.88286451,15.0533922 4.58658696,16.2722752 C5.28935623,17.4895073 5.21576143,18.9416874 4.51932165,20.054396 C5.71472734,21.1623138 7.15717534,22.0080407 8.75497087,22.5 C9.36933016,21.3371627 10.5919836,20.5445504 12,20.5445504 C13.4080164,20.5445504 14.6306698,21.3371627 15.2450291,22.5 Z M12,15.6619502 C14.0250441,15.6619502 15.6666667,14.0224392 15.6666667,12 C15.6666667,9.97756075 14.0250441,8.33804981 12,8.33804981 C9.97495592,8.33804981 8.33333333,9.97756075 8.33333333,12 C8.33333333,14.0224392 9.97495592,15.6619502 12,15.6619502 Z" fill="#5BAFFF"></path>
            </g>
        </g>
    </g>
</svg>