<?xml version="1.0" encoding="UTF-8"?>
<svg width="24px" height="24px" viewBox="0 0 24 24" version="1.1" xmlns="http://www.w3.org/2000/svg" xmlns:xlink="http://www.w3.org/1999/xlink">
    <!-- Generator: Sketch 39 (31667) - http://www.bohemiancoding.com/sketch -->
    <title>Artboard</title>
    <desc>Created with Sketch.</desc>
    <defs></defs>
    <g id="首页/个人信息" stroke="none" stroke-width="1" fill="none" fill-rule="evenodd">
        <g id="Artboard" fill="#5BAFFF">
            <g id="我的车" transform="translate(0.000000, 2.000000)">
                <path d="M19.5959637,8.34199817 C19.5471282,5.03224055 16.6269209,2.3643837 13.0317204,2.3643837 L10.9675376,2.3643837 C7.34121498,2.3643837 4.40267274,5.07839589 4.40267274,8.42629958 L4.40267274,8.74534779 L4.4082026,8.74534779 L4.4082026,9.42313627 C6.45605615,9.59203034 9.10843639,9.69392415 12.0059411,9.69392415 C14.9034458,9.69392415 17.555826,9.59203034 19.6036795,9.42313627 L19.6036795,8.55392415 C19.6036795,8.48286888 19.6010879,8.41221393 19.5959637,8.34199817 Z M2.46843602,8.21833537 C1.73261144,8.20959627 0.952310214,8.5917829 0.566622156,9.18867127 L0.315849968,9.5767647 C-0.157841189,10.3098461 0.166360181,10.8826308 1.03012123,10.8713631 L2.05353797,10.8580128 L1.74781639,17.1798794 C1.72262406,17.2673788 1.70912305,17.3598208 1.70912305,17.4554097 L1.70912305,18.5045903 C1.70912305,19.0514375 2.15479435,19.5 2.70455776,19.5 L3.6539389,19.5 C4.20281284,19.5 4.64937361,19.0543399 4.64937361,18.5045903 L4.64937361,17.98 L19.3506264,17.98 L19.3506264,18.5045903 C19.3506264,19.0514375 19.7962977,19.5 20.3460611,19.5 L21.2954422,19.5 C21.8443162,19.5 22.2908769,19.0543399 22.2908769,18.5045903 L22.2908769,17.4554097 C22.2908769,17.3603002 22.2773957,17.2681637 22.2522302,17.1808431 L21.946462,10.8580128 L22.9698788,10.8713631 C23.8336398,10.8826308 24.1578412,10.3098461 23.68415,9.5767647 L23.4333778,9.18867127 C23.0476751,8.5917601 22.2673289,8.20956707 21.5314797,8.21833638 C21.2034141,3.9089503 17.5990557,0.5 13.2009783,0.5 L10.7990217,0.5 C6.40155558,0.5 2.79601392,3.90104455 2.46843602,8.21833537 Z M19.7181577,14.94 C20.3271035,14.94 20.8207517,14.4296046 20.8207517,13.8 C20.8207517,13.1703954 20.3271035,12.66 19.7181577,12.66 C19.1092119,12.66 18.6155638,13.1703954 18.6155638,13.8 C18.6155638,14.4296046 19.1092119,14.94 19.7181577,14.94 Z M4.28184229,14.94 C4.89078812,14.94 5.38443625,14.4296046 5.38443625,13.8 C5.38443625,13.1703954 4.89078812,12.66 4.28184229,12.66 C3.67289646,12.66 3.17924833,13.1703954 3.17924833,13.8 C3.17924833,14.4296046 3.67289646,14.94 4.28184229,14.94 Z"></path>
            </g>
        </g>
    </g>
</svg>